<?xml version="1.0" encoding="UTF-8"?>
<svg id="Calque_1" xmlns="http://www.w3.org/2000/svg" version="1.1" viewBox="0 0 1335.7 667.8">
  <!-- Generator: Adobe Illustrator 30.2.1, SVG Export Plug-In . SVG Version: 2.1.1 Build 1)  -->
  <defs>
    <style>
      .st0 {
        fill: none;
        stroke: red;
        stroke-miterlimit: 10;
        stroke-width: 9px;
      }

      .st1 {
        fill: #c8c8c8;
      }
    </style>
  </defs>
  <polygon class="st1" points="755.7 130.2 755.7 130.2 755.7 130.2 755.7 130.2"/>
  <path class="st1" d="M1242.1,430.5c-10.6,1.5-8.6-21.9-19-22.9-5.3-.5-2.9-18.7-10.2-23-5-36.1-7.8,13.6-17.8,16-7.8-5.3-12.9-7.5-18-11.7,17.7-12.7-8.4-15.9-17.5-11-4.6,2.2-7.8,10.7-9.9,10.8-18.3-8.5-24,4.4-35.7,18.4-23.2,9.1-41.9,7.3-38.2,35.8,1,5,1.9,24.2-3.7,24.5-5.6,17.7,53.9-10.2,64.3-8,6.3-2.5,16,7.4,15.1,11.6-1.8,3.3,11.8,2.6,13.6,6.6.6,3-2.9,7.4,4.5,10,12.8,2.7,27.7,1.8,35.8-5.5,13.6-14.3,37.6-34.7,36.6-51.4v-.2h0Z"/>
  <path class="st1" d="M632.9,161.1c2,1.2,2-.7,3.6-.7,1.1.4,1.5-.5,1.6-4.7,0-2.8,0-3.4-.9-4-1.5-1.8.2-3.7.2-6s0-1.8-.3-1.8h0c-1,1.1-3,1.4-3.7,2.6-.5,2.8,3.1,4.5,1,5.7-1.3,1-4.5-.8-2.2,2.4,1.3,1.9-1.2,5.1.7,6.4h0Z"/>
  <path class="st1" d="M1330.7,482c0-4.5-3.7-9.5-8.2-6.3-3.4,2.4-6.6,11.1-12.1,16.5-1.7,1.7-3.6,3.1-5.6,4.4-9,5.9-19.2,9.4-28.8,14.3-9.2,4.8-16.6,8.4-19.9,13-1.8,3.5,4.6,1.9,6.5,1.4,9.9-2.7,19.5-9,28.6-13.8,7.8-4.2,15.7-8.2,23.4-12.6,7.1-4.4,15.7-8.5,16.2-16.8h0Z"/>
  <path class="st1" d="M1053.9,354.1c18.3,9.7,41.8,12.7,62.5,13.8,4.4.3,18.6.8,18.7,0-10.1-3.8-32.4-4.2-46-8.4-17-4.5-30.9-14.8-43.2-26.9-10-9.5-21.7-22.6-34.4-26.4-10.4-1.8,5.4,17.9,8.4,21.1,9,10.3,21.3,20.2,33.8,26.7h.2Z"/>
  <path class="st1" d="M1141.3,302.8c-3.2,2.8-8.2,1.2-12.1-.1-5.8-1.9-10.8-5.7-12.8-11.5-2.5-7-3.1-16.7-4.9-24.5-.9-4.9-1.9-10.2-1.2-15,.6-3.7,2.5-7.7,5.8-4.7,3,3,6.3,11.1,9.8,15.5,5.2,6.5,10.6,11.1,14.3,19.3,2.7,6.1,6.1,15.4,1.2,21h-.1Z"/>
  <path class="st1" d="M1155.6,183.8c8.3-2.7,16.7-6.1,15.3-16.3-1.3-8-6.2-13.2-2.9-21.4,1.5-4-.2-6.3-4.2-8-3.8-1.5-10.8-3.9-12.3,1.4-.6,2.9.7,6.1,1.7,8.8,3.8,8.6,6.5,16.2-1.6,22.9-5.4,4.6-14,5.9-17.7,12.5-1.5,3.3-1.2,6.8,1,8.2,4.3,1.9,8.5-2.7,12.3-4.4,2.6-1.5,5.5-2.6,8.3-3.6h.2-.1Z"/>
  <path class="st1" d="M1229.5,345.9c-4.8-3.4-11.3-6-18-8.2-4.9-1.7-10.6-3.4-15.5-3.8-14.5-.2-13.6,3.6-28.3-4.1-9-4.2-7.5,2.4-2.7,7.4,4.3,6.4,14.4,7.2,21.2,10.8,3.3,1.6,5.8,4.4,6.6,7.7.9,2.7,1.1,5,3.3,6.8,3.2,2.3,7.2,3.4,11.1,3.9,5.2.7,10.3-1.4,15.4-1.6,4.2,0,8.4,1.1,12.4,2.7,12.4,5.5,14,4.7,5.6-7-3.9-5.3-5.6-10.8-11-14.5h0Z"/>
  <path class="st1" d="M1130.5,329.4c-2.8,1.8-5.2,4.4-4.7,7.9.4,4.3,4.3,10.3-1.4,12.1-2.9,1-6.6,1.2-9.4-.3-3-1.6-3.8-5.4-7.5-5.7-5-.5-10.6.8-15.5.5-9-.2-19.9-5.5-22.9-14.5-1.1-3.2-1.7-7.6,1.2-9.8,1.6-1.3,4-2.2,5.9-3.3,4.6-2.4,10.7-6.8,15.4-10.3,4.1-2.8,7.9-9.4,12.5-8.6,3.5,1.1,4.5,5.3,4.4,8.6,0,3.5-1.3,7.7,1.9,10.3,3.4,3,9.5,3.7,14.4,4.3,2.1.3,4.2.2,6.2,0,1.9,0,4-.8,5.6.2,1.7,1.7-3.4,7-5.8,8.4h0l-.2.2h0Z"/>
  <path class="st1" d="M1113.2,279.2h0c.3,0,0-.2,0,0Z"/>
  <polygon class="st1" points="322.9 249.3 322.9 249.3 322.9 249.3 322.9 249.3"/>
  <polygon class="st1" points="282.6 134.7 282.6 134.7 282.6 134.7 282.6 134.7"/>
  <path class="st1" d="M315.6,253c-1.8,2.4-6.9,2.8-10.1,2.7-10.9-.3-20-7.3-28.3-13.5-5.5-3.9-12.4-6.8-19.3-8-2-.4-4.7-.8-6.4-1.1-1.2-.3-2.3-.4-2.9-1.2v-.3c.8-1.5,4.6-1.9,6.8-2.2,15-1.9,26.5,6.7,40,12.3,3.5,1.9,22.5,6.7,20.4,11.2h-.2Z"/>
  <polygon class="st1" points="297.8 243.1 297.8 243.1 297.8 243.1 297.8 243.1"/>
  <path class="st1" d="M159.3,237.4c3.2,16.9,23.9,20.9,40.7,23.1,5.5,1.3,11,4.9,16.3,7.6,4.8,2.5,10,4.6,14.3,7.9,8.4,6,12.9,16.5,24.3,18.3,4,.5,7.3-1,10.2.3,5.1,2.7,6.3,8.9,5.3,13.7-1.4,7-7.4,12.8-10.7,19.2-4,7.7-5.7,17.9-1.4,25.5,3.6,5.2,8.6,11.2,11.9,16.9,5,7.3,8.1,15.1,15,21.1s17.5,8.7,21.4,16.6c11.1,43.9-3.6,103.2,31.2,137.3,6.7,6.8,16.8,12.1,27.3,12.5,2.9.5,11-.6,6.6-4.1-3.9-3-10.4-5.9-12.9-10.1-3.5-4.8-.3-10,0-15-.4-3.6-3.5-6.9-3.6-10.6-.2-4.3,2.5-8.5,1-12.7-1.1-3.4.3-5,2.8-7,2.8-2.2,5.2-4.4,8.4-6.5,3.5-2,8.5-3.5,9.3-7.5,1.4-3.6-3.9-9.1-1.5-10.9,5.7-1.5,12.8-1.7,16.9-7.2,4.4-5.8,8.3-12.6,10.7-19,1.4-4,1.9-8.1,3.8-11.6,2.6-5.2,8.9-7.7,14.6-10,16.8-5.3,17.3-20.3,18.9-33.7.3-11.8,14.5-20.1,14.7-31.6-1.6-18.6-36.1-22.9-53.5-30.4-19.8-8.3-8.1-21.3-34.8-27.6-6.9-2.3-12.2-5.2-17-9.4-3.4-3.2-5.9-7.6-10.4-9-4.9-1.5-10.1-.4-15.5-.8-6.2-.2-12.1-4-18.2-4.4-27.8-4.1-18.8,17.9-51.6,8.4-9-3.9-4-15.5-6.3-21.4-2.2-7.5-19.5-2.2-17.2-11.2,1-3.9,5.7-9.5,5.9-12.9,0-5.4-8.2-3.2-12-.9-4.6,2.4-8.3,6.2-13.2,8-7.4,2.8-13-2.4-14.8-10.3-2.8-11.1,2.8-26.6,15.9-32,6.5-3,14.2-2.2,21.2-3,4.2-.4,8.3-2,12.3-2.2,5-.2,11.5.8,14.3,4.6,2.4,3.2,2.7,7.7,5,11,3,4.1,6,1.1,6.5-2.7,1-5.2-.4-11.1,2.4-16.1,5-9.4,19.2-14.9,27.8-22.2,10.5-10.1,6.8-13.6,23.4-20.9,5.9-2.9,9.3-7.5,15.1-10.7,3.4-2,8-3.6,11.2-4.5,1.5-.3,3.7-1.3,4.4-.2.2.9-3.4,3.6-.7,3.9,4.9-.2,9.4-2,14.6-3.9,2.9-1.2,12.2-5.5,4.6-6.7-5.2-.6-8.1-2.2-9-6.7-.5-2.5-2.7-4.9,0-6.5,6.8-2.6,15.2-2,22.3-3.4,4.3-.4,12.6-3.5,6.2,3.2-5.9,6.5-4.2,8.5,4.7,9.9,3,.5,7.5,2.2,9.2-1,2.7-5.3-5.4-9.3-3.5-14.7.5-1.8,1.1-3.6,1.1-5.5.3-6.5-5.4-10.9-8.6-16.3-1.7-2.9-2.4-6.4-3.6-9.4-2.3-6.4-11.2,2.8-15.7-1.2-2.7-2.4-3.7-6.3-7.1-8.3-7.1-4.7-18.3-3.6-23.5,3.1-4.7,4.9-4,12-9,16.7-3.2,3-7.8,4.9-11.1,8-3.6,2.7-6.1,7.9-10.5,9.5-4.2.5-.2-8.9-4.6-11.9-4.9-4.4-17.5-6.3-22-11-7.7-10.4,21.2-21.2,30.1-21.8,8.5-.9,18.3,1.8,25.7-2.8,7.6-4.4,10.9-19,22.5-15.4,2.6,1.7,5.6,3.1,8.5,4.2,7.5,4-11,6.7-12.5,9.4.1.8,6.2,2,8.2,3,5.7,2.1,11.3,6.6,17.4,7.3,8.7.9,7.4-8.1,13.2-11.2,3.5-2.3,10.9-1.9,12-6-1-3.6-5.6-5.7-7.6-9.1-6.5-9.4-18.8-15.8-31.5-15.6-39-1.8-25.5,17.6-37.2,16.4-4.7-1.2-4.8-7.9-.7-10.6,2.5-2.1,6.6-3.6,8.5-4.8.5-.4,1.2-.7,1.2-1.2s-.8-.5-2-.5c-8.6.4-15.2,5.5-22.4,9.6-7.1,3.7-14.2,8.4-22.2,10.2-1.2.3-9.8,1.5-7.1-1,5.5-2.9,7.6-5.1,9.3-10.6.7-1.8,2.2-5,.5-5.3-3.1-.4-6.4,1.1-9.6,1.2-4.6.5-8.9-1-13.3-2.2-9.2-2.2-17-4.3-26.4-1.8-2.6.7-13.5,3.6-11.1,6.7,1.5,1.5,6.4,2.1,7.4,3.7,0,3.4-14.7,3.7-19.8,3.7-7.9,0-15.7-.8-23.5-.3-36.5,3.1-74.5-10.8-108.4,3-4.6,2.3-7,5.5-11.5,7.6-3.7,1.8-8.7,2.5-12.3,3.9-8.4,3.5,2.2,4.8,1.3,7.2-3,1.7-8.5,2.8-13,4.1-5.3,1.6-9.9,3.2-12.8,6.7-1.1,1.3-1.3,2.9-1.3,4.5-.5,4.3,3.8,4.7,7.6,5,7,.7-11.4,7-14.1,7.9-7,2.7-18.5,3.3-23.9,6.9.5,2.3,12-.7,15.4-1.6,20.8-5.9,39.2-14.9,60.3-16.7,10.6-1.3,25.8-3,32.5,1.4,5.4,3.7,4.5,10.4,6.4,15.6,4.8,12.5.9,12.3,2.1,22.7.9,3.7,1.2,7.8-1.5,11.3-3.2,4.7-6.9,9.4-10.3,14.1-11.1,14.1-12.2,23.5-3,38.7,5.6,10.4,7.8,21.7,12.7,32.2,1.6,3.7,3.4,7.8,6.4,10.5,3.5,2.4,2.3-3.7,1.8-5.3-.9-6.1-9.2-18-5.9-22.8,4,.2,6.8,12.2,9.8,15.3,5.3,7.6,11.8,14.4,13.7,23.3h0l.2-.2h0Z"/>
  <path class="st1" d="M329.1,18.9c4.4,5.8,18.8,3.4,27.1,3.8,8.1,0,16.6.2,24.6-.6,8.4-.6,16.1-3.8,24-5.2,10.2-1.3,18.7,3.5,28.9,4.9,17.7,3.1,12.5,13.8,10,28.2-1.6,9.6.1,22.8,9.9,26.8,11.8,4.4,22.1-7.3,31.8-12.5,7.8-4.4,16.3-7.5,24.7-10.1,26.1-8.2,31.2-4.6,52.6-25.1,5-4.5,8.4-10.4,12.4-15.3,2.5-3.2,7-5.6,9.5-8.2-.8-9.1-89.1-4.9-105.2-3.6-9.2.6-16.6.5-25.6.3-30.4-.5-76.4,4.2-100.3,7.6-6.5,1.4-13.2,1.1-19.5,3.3-2.8,1.2-6,2.8-5.1,5.5h0s.2.2.2.2Z"/>
  <path class="st1" d="M532.8,60c1.9,8.4,32.2,6.9,35.1-.6-.2-7-34.8-5.9-35.1.5h0Z"/>
  <polygon class="st1" points="601.4 81.3 601.4 81.3 601.4 81.3 601.4 81.3"/>
  <path class="st1" d="M789.6,432.9c2.8,1.8,5.4-.4,7.8-.5,4.5-.9,6.1-9.8,7.8-13.1,1.8-6.1,5.8-11.4,6.9-17.7.6-9.7,10.3-10.7.4-24.8h0c-2.6,5.5-7.2,9-8.9,11.8-2.3,2.2-8.5,5.6-11.6,5.6-2.1.5-1.3,2.5-2.4,4-2.3,8,3.2,9.9-3,17.3-2.5,2.1-1.9,17.1,3.1,17.4h0Z"/>
  <path class="st1" d="M613.3,111.1c-2,4.1-7.1,3.9-11.7,4.5-4,.4-8.3,1.2-12.2,1.7-1.7.2-3.6,0-1.7-1.6,4.1-3.6.6-4.3,1.7-8.2.8-2.6,7.2-6,2.8-8.3-3.3-.8-4.6,3.7-7.6,4.7-3.6,1.4-8.5,3-11.4,1.6-1.5-1.2.8-4,.9-5.6.4-1.7,0-3.2,1.2-4.2,1.7-1.6,4.2-2.2,5.8-3.8,1.9-2.1,3.1-4.5,5.3-6.3,2.4-2,5.4-3.3,8.3-4.4,1.1-.3,3.6-1.2,3.7.5v1.8c0,1.6,2.1,2.8,2.5,4.8.3,1.2.2,2.4.4,3.5.3,1.6,1.3,3.1,2.3,4.4,2.5,2.7,4.9,6,7.3,8.4,1.7,1.7,3.7,3.9,2.6,6.4v.2h-.2,0Z"/>
  <path class="st1" d="M612.7,116.4c-2.4,2.9-7.3,3.2-10.7,3.7s-.4,0-.6.3c-4.9,4.5-3.7,2.6-10.8,3.7-6.3,1,15.6,10,8.4,18.8-6.9,7.2-20.9-3-27.9,4s0,.1-.2.2c-1.7,2.6-1,6.8-1.9,10-.7,4.3-3.7,7.7-.3,11.3s4.4,3.5,6.6,4.3c2.1.7,4.3-.4,6.6-.1s21.1-.6,22.8-11.5,0-.1,0-.2c1.6-4.1,6.9-5.7,10.1-8.8,2.8-3,3.3-6.3,7.9-6.2,10.4,1.2,11.4-6.1,14.8-1,1.1,2.6,2.1,4.9,5.3,5.9s0,0,.2,0c4,2.2,15.6,10.3,15.4,10.4-1.4,3.3-4.7,3.6-3.3,9,3.5,1.9,2.9,1.7,4.9-.7s0,0,0-.1c2.7-2.1,4.6-5.8,5.4-8.4.6-1.5,4.3-.6,3.7-2.5-4.1-5.4-12.2-6.7-17.1-11.4-5.4-3.9,0-15.3,8.5-6.1,4.5,5.4,15.8,6.6,19.7,12.9s0,.1,0,.2c2.3,5,3.8,10.3,7.1,14.8s0,.1,0,.2c1.3,1.3,3.4,2.2,4.9,3.3,3,2.1,4.2,2,5.2-1.1.4-1.2,2.8-1.4,4.2-1.9s.9-1,.5-1.6c-1.3-1.9-4.9-4-6.2-5.8-2.3-2.5.3-2.6,2.6-3.4s0,0,0,0c3-1.6,8-2.6,7.9,1.7s0,.2,0,.3c1.1,4.5,3.5,9,6.5,12.8.8,1.7,2.5,2.3,4.4,1.9,2.2-.4,4.8,0,7-.3s0,0,.2,0c6.5-2.2,7.3.5,11.5,3.1s.3.1.5.2c3,.3,4.6-2.5,6.6-3.6s.4-.1.6-.1c6.7.8,4.1,11.4,2.3,15.5-2.5,6.3-4.9,6.5-13.2,6s0,0,0,0c-4.2,0-8.7,1.4-13,1.3-10.5.2-21.9-10.6-31.8-5.8,0,0-.4.3-.5.5-2.8,5.9-3.2,7.9-11.3,6.2-4-1-7.5-3-11.1-4.8-6-3.2-15-3.2-19.6-6.9-1-1.3.4-2.5,1.3-4.4v-.2c3.7-12.4-7.2-11.1-18-9.1s0,0,0,0c-4.8.6-9.3-.6-14.1.5-8.3,1.6-16,6.5-24.7,6.3-4.2.5-9.1-3.2-12.2.6-2.7,4.3-7.7,6.9-11.7,10s0,0-.2.1c-6.1,6.8-2.7,15-14.1,19s0,0-.2,0c-9.4,5.2-16.7,15.6-19.7,24.3s0,0,0,.1c-2.3,9.9,1.9,18.3-3.4,27.5-5.3,9.2,0,.1,0,.2-1.6,4.7,0,9.9,1.9,14.3s0,.1,0,.2c2,3,5.7,5.6,8,8.6,5.3,6,9.5,12.4,16,16.9,7.8,5.6,11.7,8.8,21.9,5.2s0,0,.2,0c7.4-1.2,15.1,1,22.2-1.7,6.7-2,15.4-6.4,22.1-2.5,2.4,1.6,3.4,4.7,6.2,6,4.3,1.7,10.9-.4,13.8,2.5s0,.1,0,.2c5,6.6-5.1,16.4,1.1,23.2,36.1,47.2-3.6,47.2,15.4,79.5,4.8,7.2,5.2,15.5,7,23.3s0,0,0,.1c2.2,7.4,8.6,13.6,11.3,20.8s0,0,0,.1c1.4,5.2-.7,12.9,7.7,13.6,5,.3,11.7-1.8,17.3-1.8,22.4.5,32.8-22.8,42.1-35.3s0,0,0-.1c13.3-12.1,1.3-15.9,8.5-25.4s0,0,0-.1c5.7-5.8,15.1-9.2,20.3-14.8s0,0,0-.1c6.2-8.3-.6-25.2-1.5-33.9-8.9-30.8,43.4-40.3,45.9-74.7,0-4.9-4.5-4.7-8.3-3.6-6.6,1.1-10.8,3.2-17.2,4s0,0-.2,0c-8-.4-11-7.6-19.3-12.2s0,0-.2-.1c-18.7-16-12.9-37.8-25.3-55.6s0,0,0-.1c-.9-1.9-10.8-15.1-5.3-10,1.1.9,2.3,1.8,3.7,2.3s0,0,.2,0c7,1.2,9.5,7.9,12.8,12.7,2.1,3,5.1,5.1,6.3,8.4s0,0,0,.1c1.1,4.7,3.4,8.9,7.5,12.2,4.6,4.1,6.3,9,7.4,14.3,1.1,5.3,0,.2,0,.3,1.5,2.7,3.9,4.5,5.1,7.6,1.6,3.1,9.4,4.9,14.3,5,9.5.5,22.8-10.9,31.8-13.7,5.5-1.5,9.6-4.4,14.2-7.6,18.9-12.1,4-17-6.1-30.4-2.8-2.1-5.5,4-8,5.2-4.1,3.6-10.8,4.8-12.3-1.4-.4-3.4-3.4-5.3-6.8-6.9-7.4-3.2-12.2-16.1-2.3-13s.2,0,.3.2c6.2,4.6,12.3,12.1,20.5,12.6,2.7.3,5.7-1.1,8.5-.6s.3.1.4.2c9.5,7.5,18.7,7.1,32,6.2s0,0,0,0c9.1-1.7,13,3.9,19,8.4s0,0,.2.2c2.8,3.3,4.8,7.5,9.5,9.3,2.8,1.6,7.3-1.6,8.7,1.7,3.1,13.7,10,26.3,16.6,39,2.4,3.8,3.6,10.3,8.8,11.6s.3,0,.4,0c5.3-.8,7.9-5.1,9.1-9.1,2.1-4.8-.4-13.6.9-19.1s0-.1,0-.2c.9-2.3,3.7-3.5,5.7-5.2,5.4-4.7,10.3-9.9,16.2-14.3s0,0,.2-.2c4.1-4.9,4.9-7,12.4-7.6s0,0,.2,0c12-3.5,7.9-1.4,14.5,6,3.7,4,8,7.2,9.3,12.4,1.3,5.2,0,.2,0,.2,0,3.7,1.8,7.1,6.7,5.1,2.1-.8,3.6-1.9,4.9-1.7s.2,0,.3,0c2.6,1.1,2.9,4.2,4,6.4,1.9,4.2,9.7,4.1,17.4,10.6s0,0,0,0c4.3,2.3,6.5,6.6,10.8,8.8,5.5,1.7,2.3,10.3,8.3,5.1,3.3-4.2,9.2-6,12.4-10.1s0-.2,0-.2c5.5-11.9-8-19.7-15.3-27.9-5.6-5.3,4.8-15.3,10.7-12.4s.2.1.3.2c1.5,1.5,5.9.6,7.3-.4,2.2-1.3,5.7-2,8.2-3.4s0,0,.2,0c5.3-1.8,10.9-2.1,15.1-5.8,8-6.6,12.9-17,13.3-26.3s0-.2,0-.2c-.3-2.9-2.7-4.6-3.8-7.4-3-5.7-11.2-9.2-14.2-14.6s0-.3,0-.4c-.8-5.9,15.3-8.5,0-10.4s0,0-.2,0c-2.5,0-4.7,1.1-7,0-2.6-1.5-8.6-3.6-5.7-6.6,2.5-2.3,7.9-7.8,9.9-4.8,1.2,1.3.8,3.8,2.2,4.8s.4.2.7.1c4.2-.5,9.3-3.6,12.6.3,2.1,4.7,9,5.7,11.1,10.2,3.1,5.7,2.9,11.8,11.8,7.2s.2,0,.2-.1c7.4-6.2-8.9-13.6-11.4-18.8s0-.2,0-.4c-.3-2.2,1.3-4.2,1.8-6.3s0-.1,0-.2c.5-10.6,9.4-4.1,15-9.9,3.2-3.7,3.4-8.6,3.9-13s0,0,0-.1c1.6-6.7,5.3-10.7,8-7.2,3,3,4.7,9.7,9.8,9,6.1-.6-1.3-9.7-2.2-11.5s0-.2-.2-.2c-4.1-4.5-10.4-8-14.9-12.5s0,0,0,0c-3.4-2.5-16.4-6.3-18.8-6.9-5.6-2.2-14.4.3-18.4-3.8s-.2-.2-.2-.3c-.7-1.6.9-5.1,2.1-7.6s0,0,0,0c1.8-4.6,4-9.5,10.4-9.4,3.1,0,7.5.4,11.1,0s0,0,0,0c4.6-.9,8.6-1.3,13.2.6s0,0,0,0c2.6.8,5.8,1,8.2.4,1.4-.3,2-.8,1.8-1.5-1.4-2-3.4-5-.8-7.2,5.1-5.3,7.7-6,17.5-2.2s0,0,.2,0c2,1.2,4.2,5.5,3.1,8.7-.5,3.7-4.8,6.6-3.3,10.3,3.2,7.5,16.7,15.3,24.6,21.7,2.1,1.7,3.7,1.2,3.8-1,.3-1.8,1.1-4,.7-5.9-.4-3.6,0-8.2-1.9-11.7-1.5-4.4-13.1-7.8-14-13.1-.4-3.5,11.3-1.9,17.6-2.6s.2,0,.4,0c8-3.8,4.1-5.6,17.9-8.2,5.7-1.5-8.6-5.4-8.8-6.5-1.8-1.3-2.3-6.4-.5-6.1,7,1,24.7,10.6,29.3,2.1s0-1.1-.3-1.3c-6-3.8-15.7-4.5-22.4-5.5s0,0,0,0c-21.1-5.7-46-10.9-70.7-9.5-5.3.3-11.2.9-16.5.4-10.9-.9-20.8-5-32-4.7s0,0,0,0c-13,1.2-41.3-9.3-53.1-5.2s-.9,1-.5,1.6,0,0,0,0c.5.6.2,1.4-.5,1.6-4.4,1.2-13.4-1.6-18.3.5-5.8,3.6-10.9-3.4-16.6-4.8-5-1.7-11.6-3.6-16.8-2.7s-.2,0-.3.1c-1.9,1-3.8,1.4-6.2,1-9-.7-20.6,1.1-29.1-3.8s0,0,0,0c-10.3-7.9-24-8.8-37.6-9.6-2.3-.2-4.7-.2-6.7.7s0,0-.2.1c-3.9,2.6-8.6,3.4-13.6,3.1s0,0,0,0c-5,0-11.3,1.5-16.7,2.8-2.1.6-5.1,1.1-6.8,2.1s-.6.9-.3,1.4.3.6,0,.9c-.9,1.6-12,.5-10.4,3,.4.5,1.1.9,1.8,1.3s.4,2.1-.7,1.9c-6.3-1.2-13.3-4.3-18.3-3.2-.6.4.4,1.1.8,2s0,0,0,.2c.3,1.9-.4,3.9,1.1,5.8,1.9,3.5,7.7,4.9,8.9,7.8s0,.2,0,.4c0,2.1-.7,5.1-2.9,6.3-4.5,1.3-.3-4.6-2.2-6.5-3.8-4-7.4-8.4-10.2-12.8s0-.2-.2-.3c-2.3-1.7-6.8-4.3-9.3-2.9-2.6,1.7-4.4,5-4.2,7.8-.8,3.2,14.7,9,4.7,7.2-8-1.7-16.8-3.7-24.8-4.9-1-.3-3.7-.3-2.8.8,1.3,1.1,8.7,4.3,2.1,4.4-3.8-.2-8.6.6-11.9.6s0,0,0,0c-3.6-.4-7.2-1.4-10.7-.2-5.1.5-14.4,9.7-16.7,2.5s0-.3-.2-.4c-2.1-2.3-10.6-4.1-6.4,1.2,4.2,5.9-2.9,3.8-7.1,5.9-5.2,2.7-.7,5.6-8.8,4.3s-.2,0-.2,0c-1.6.2-4.2-.4-1.6,2.2,0,.2.3.5,0,.5-3,.7-8.9-3.6-11-6.6s0-1.6.8-1.6c6.5-.3,23.8,3.7,17.6-4.6s0,0-.2-.2c-5.8-5-24.3-6.1-33.2-8.2s-.6-.3-.7-.6c-.7-1.7-4-2.4-6.1-2.8-7.2-1.5-14.6-.3-21.3,1.6s0,0,0,0c-8.3,1.1-16.4,4.2-23.8,7.4-2.2,1.3,1.8,1.3,1,3-3.9,5.2-10,10.3-16.3,13.5-5.2,3-11.7,4.1-13.6,9.5s0,0,0,.2c-1,4.8,2.2,11.3,7.4,11.7,6.6.6,11.4-7.3,15.1,1.2s0,0,0,0c1.1,1.9,2.4,3.7,2.5,5,.3,2.6-4.2,1.8-5.2.2-1.1-1.1-.7-3.4-2.8-3.5-10.2,1.9-4.6,7.9-6.9,13s0,.3-.3.4c-2.3,2.1-6.7,1.5-9.5,2.9-2.8,1.3-3.9,4-6.7,5.9-2.8,1.8-6,3.4-8.4,5.5h0l.5-.2h.7,0ZM799.6,131.2c7.7,2.1,10.7,13.7,15.2,20.5,1,1.6,2.1,3.3,3.1,5,2.1,3.5,3.9,7.8,2.5,11.7-2.3,5.5-7.6,6.5-13.2,2.4-9.6-6.7-18.8-20.4-16.3-31.9,1.1-4.3,4.2-8,8.5-7.6h.2ZM714,147.7c-.7-14,18.2-13.2,27.7-15.2,4.7-.7,9.2-1.8,13.5,1,6,3.7,12.7,12.8,12.1,18.7-1.2,6.9-21.3,4.3-27.2,4.5s0,0,0,0c-8.5-.6-23.7.7-26-9h0ZM650.9,99.8c5.7-4.2,13.8-7.6,17-14.6,2.6-6.3,3.2-13,7.6-18.6,2.8-3.9,9.1-8.5,13.9-7.9,1,.3,1.1,1.4,1.1,2.4,0,3.2-2.5,9.1.3,12.2,3.7,3.7,10,3.8,14.9,4.6,1.5.2,2.3.3,3.1.6.2,0,.3.2.2.3-.9,1-3.9,1.7-5.7,2.5-3.5,1.4-7.2,3.2-10.3,5.5s0,0,0,0c-8.7,7.2-14.8,14.6-27.1,15.6-2.2.4-20.7,1.7-15.2-2.6h.2Z"/>
  <path class="st1" d="M1128.3,643.5c-3.2-2.1-20.8-5.8-19.9-10.2.2-1.1,1.3-2,2.1-2.8,4.5-4.5,15.2-9.9,11.5-16.3-1.8-2.4-3.9-3.9-6.9-5.5-5-2.5-11.1-4.7-16.9-6.4-28.6-8.8-57.9-8.1-87.8-7.3-14,.2-28.3-1-42.1-2-20.5-1.1-40.9-1.2-61.4,2-10.4,1.7-20.9,4-31.4,5.3-9.3,1.2-18.6,2-27.9,2-16.5,0-32.9-3.9-49.6-4.3-21.2-.8-42.1,3.6-63,6.8-18.2,2.9-36.7,3.8-55.1,4-29.4.7-59.2-.4-88.3,5.2-15.9,2.9-31.1,8.9-46.3,14.4-16.4,5.9-33.3,9.8-50.8,9.3-20.6-.6-42.4-4.1-58.1-18-5.1-4.6-9.3-10.4-13.6-15.6-3.6-4.2-6.6-8.1-11.4-10-7.6-2.9-14.1,3.7-19.4,8.8-4.2,4-8.2,8.2-13.1,11.3-9.7,6.4-22.6,6.3-34.8,6.1-11.4-.2-22.7.5-33.6,1.8-13.9,2.1-29.4,4.4-44.4,3.5-25.8-.8-52.6,1.6-77.8,8-9.6,2.3-38.7,10.4-20.5,19.4,15.5,6.3,30.9,8.1,51.8,11.2,121.7,15,318.4,4.9,419,6.1,22.4.2,42.6,0,66.6.2,129.8-.5,311.4,10.2,409-12.9,7.3-2,25.9-8,14.3-14.1h-.2Z"/>
  <polygon class="st1" points="331.5 28.3 331.5 28.3 331.5 28.3 331.5 28.3"/>
  <path class="st0" d="M259.4,301.1c5.2-12.5,11.9-24.5,19.7-35.6"/>
  <path class="st0" d="M750.9,217.1c-8.6-7.5-15.4-17-19.6-27.5"/>
  <path class="st0" d="M727.6,180.1c-.2-5.9,1.1-11.9,3.7-17.2,2.1-4.3,5.2-8.4,9.7-10.3,2.8-1.2,39.5-9.3,54.6-3.9"/>
  <path class="st0" d="M799.7,140.1c-2.1-8.2-2.4-16.9-.7-25.3,3.4-16.9,14.1-31.3,19.6-47.7,2.2-6.7,3.6-13.7,4.9-20.6"/>
</svg>