<?xml version="1.0" encoding="UTF-8"?>
<svg id="Calque_1" xmlns="http://www.w3.org/2000/svg" version="1.1" viewBox="0 0 2370 1200">
  <!-- Generator: Adobe Illustrator 30.2.1, SVG Export Plug-In . SVG Version: 2.1.1 Build 1)  -->
  <defs>
    <style>
      .st0 {
        fill: #c8c8c8;
      }

      .st1 {
        fill: none;
        stroke: #000;
      }
    </style>
  </defs>
  <path class="st0" d="M1640.3,544.9c1.1,6,1.9,12.4,8.5,9.2,4.5-2.2,5.6-3.7,5.6-7.3s-3.4-11.7-5.7-13.5c-3.5-3.3-3.6-6.9-7.3-7.4h0c-2.9,4.1-.4,4.3-2.5,5.7,2.5,3.7.7,9.4,1.4,13.4Z"/>
  <polygon class="st0" points="1353.3 250.5 1353.3 250.5 1353.3 250.5 1353.3 250.5"/>
  <path class="st0" d="M1900.2,514.6c0,0-.1.1-.2.1.4,0,.2-.4.2-.1Z"/>
  <path class="st0" d="M1175.4,304.6c3.1,2.1,3.1-1.2,5.6-1.3,1.7.7,2.2-.9,2.5-8.2.2-4.9,0-6-1.4-7-2.3-3.1.3-6.6.3-10.6,0-2.3-.2-3.2-.5-3.1h0c-1.5,1.9-4.6,2.5-5.7,4.6-.8,4.9,4.7,7.9,1.5,10-2,1.8-6.8-1.3-3.4,4.3,2,3.4-1.8,9,1,11.3Z"/>
  <path class="st0" d="M1137,226.1c-.9,5.2-6.2,2.9-8.5,6.6-3.9,3.7-11.1-5.9-11.4.1,1.8,5.8,1.6,6.3-1.9,6.3-39.5-2.3,14.7,11.4,2.1,34.5-9.5,12.8-39.9-8.9-46.2,9,3.7,13.4-6.9,28.2-2,40,1.5,6.4,11.8-3.3,15.3,4.9,1.2,1.5,2,1,2.3,1.4.5.6,1.1,1.1,1.9,1s.1,0,.2,0c1.2,0,2.2-.9,2.7-2.1,1.2-2.4,7.8-.9,11.5-1,8,2.8,8.5-4.7,13.4-5.7,1.6-.9,10-9.4,8.3-10.8-5.4-4.4,6.7-15.7,8.7-16,9.6-4,10.5-6,10.4-12.5,0-4.2,9.1-5.7,14.3-2.4,6.2,2.8,13.3-5.2,18.6-8.5,13.7-.6,8.7,9.9,9.2,11.9,6-2.1,11.2,10.2,19,11.1,5.1,2,14.1,9.2,15.6,13.3,3.2,8.4-8.9,9.5-14.5,9.1-5.1-.4-6.5,0-6.5,2,2.6,1.6,11.3,8,14.4,8.8,5.9.2.5-10.7,5.4-9.2,4.2-.7,11.3-9.8,7.2-12.5-3.3-3.3,2.8-6.3,7.1-2,1.3,1.3,1.5,1.2,2.2-.5-2-9.7-13.3-8.1-13.8-14.7-11.9,1.2-12.7-10.3-19.3-14.4-4.2-2.8-4.5-10.7-1.3-12,.5-.4,2.7-.9,3.8-.9h0c.7,0,1,.2.4.6,2.8,13.8,24.3,19.6,35.7,28-1.4,5.3,2.6,17.5,3.9,17.6,3.9.9,3.5,5,2.6,7.1,0,7.6,6,2.4,7.7,9.7,5.9,2,7.6,1.5,9,7.1,4.4-8.3-1.7-9.1,2-8.6-.3-2.6,5.6-6.3,9.2-1.6,4.7-4.2-18.4-14.6-14.4-20.9,2.5.6,8.8,5.4,9.3-.2-4.5-6.3,14.6-3.1,11.5.1-4.8,4-3.1,8.1-.3,9.3,9.8.3-6,9.5,5.8,10.6,5,1.6.5,5.7.8,7.6,6.9-1.8,4.5,3.2,5.3,4.4,4.1,1.7,1.2-5.6,4.5-4.8,4,2.6,13.3,6.6,12.6-.1-.3-2.5,6.6-.3,10.5,3.3.9.8,2.4,1.3,4.1,1.3-.6.2-1.3.3-1.9.4-2.4,0-1.8,2.6.9,4,4.3,1.9,4.8-.9,8.5-2.3.4-1.9,3-4.8,2.8-5.8-.8.1-1.5.3-2.3.6,1.7-2.1,3.1-2.2,5.5-.8,5.5-.6,2.1-.8,4.2,8.1,1,1.1,1.7,6.9,1,7.7-1.1,1.2-4.2,10.7-5.2,15.8-.6,7.8-10.5,10.2-14.8,6.9-3.2-2.8-12.6-1.8-16.4,1.7-7.9,3.8-17-5.2-25.6-3.9-6-3.6-13.7-4.8-19.9-9.2-1.3-2-9.4-.1-13.3,3.1.9,10,5.4,19.1-11.6,13.3-3.5-2.5-8.9-4.4-12.5-4.4-11.6-12.5-17.1-8.1-28.8-13.7-10.1,1.1-15.9-10.8-4.9-11.4,2,.2-1.1-8.2-1.2-8.2,3.7-9.8-2.7-7.4-3.2-9.2-.7-2.7-4.2-3.2-8-1.2-6.8-3.4-19.6,5.6-24,2.8-2.3-1.4-4.7-1.3-16.3.6-9.7,1.6-15.4,3.6-15.4,5.4s-.6.7-1.3.4c-5.3-.2-10.1,9.4-16.1,4.7-4.2-.9-9.3,1.5-12.6-.8-1.1-1.1-1.7-2.1-2-3-1.6.4-3.2.7-4.8,1.1-.7,6.3-6.8,12.8-11.7,15.3-23.9,12-3.1,33.2-33.1,41.4-14.1,21.1-36.5,38.4-26.6,66.2.3,22.4-12.2,34.5-2.1,52.4,19.6,16.5,35.7,61,63.5,54.5,16.5-6.9,32.4,2.6,47.7-7.7,10.2-4.9,29.3-9.3,31,6.4,8.6,13.5,42.2-14.8,22.1,40.2,19.5,39.1,45.9,67.8,19.2,112.7-2.3,30,21.6,47.2,20,77.4,1.6,12.3,25.8,39.8,17.4,48.7.8,10.5,8.6,15.5,14.9,13.8,18-8.1,41,.3,55.1-18.1,9.8-3.7,11.6-23.4,21-25,9.8-15.2,3.9-23.9,14.1-28.2,13.4-9.6,5.7-24.6,5.6-34.7,28.9-31.8,54.9-33.6,34-82.5-16.5-46.7,33.1-71.8,55.9-102.8,6.3-11.4,30.8-49.6,13.9-53.5-7.8,5.6-26.3,4.7-33.1,8.8-17.8,6.4-13.1-13.4-16-16.6-42.3-36.2-42.1-78.4-70.9-119.9,15.7,20.6,11.2-3,22.7,18.8,5.4,12.5,16.8,20,18.1,32-2.3,8.4,14.9,19.2,14.9,23.2.3,2.9,11.8,16.3,3.2,15.1,5.8,10.9,12,11.6,13.5,26.8,5.2,23.6,61.9-28.3,72.7-25.7,50.9-35.1,28.9-34.1,7.2-65.1,0-5.3-1-6.4-2.8-2.8-20.2,30.1-30.2,15.1-28.9,0-15.8.6-32.9-30-13.6-29.3,11.3,16.1,29.3,31.7,47,22.9,13,28.6,59.4-2,72,23.8,12,7.7,5.6,6.5,7.9,10.3,0,1.6,11.8,12.8,13.5,12.7,14.4-6,9.4-3.8,12.8,8.5,5,26.5,20,49,28.4,73.6,7.9,20.2,9.3,4.9,19.9,3.3,3.6,0-2-1.3-.7-5.8,11.5-2.7-1.1-43,7-43.1,9.5-6,14.7-15.9,23.3-23.5,6-6.6,14-9.1,13.9-18.8,5.2-3.4,9-.1,14-1.8,11-1.2,10.9-12.2,15.1-.7-2.2,4.4,13.7,16.4,13.4,17.3,2,11.2,10.5,3.9,6.9,26.1,5.5,2.3,17.1-2,17.3-7.7,3.1.9,17.3,37.9,10.3,38.4,1.2,4.4,10.8,6,.9,6.3,6.2,5.2-.8,20.3,3.7,23.3,3.7-1.9,5.9,2.8,8.3,6,1.8,10.3,4.9,1,5,11,1.4,17.1,15.5,27.1,25.9,35.2.8,2.6,7-3.2,1-3.6.2,0-.7-3.3-.8-4.7-6.3-8.1-3-15.1-5.7-23-8.8-8.6-22.6-25.5-24-36.1-6.7,9.8-4-7.1-2.8-11.5,2.6-11.2.7-21.7,9.5-8.7,8.8.3,10.9,11.9,16.8,15.6,14.8,4.4,4.1,4,9.1,14.6,11.9-13.6,32.9-18.9,25.7-38.3-1.1-18.8-24.3-25.6-27.8-41.8.4-8.3,16.7-21.6,22.6-14.5,1.4,4.6-9.1,10.8-1.9,15.8,9.2,3.2,8.9-4.1,12.1-9.5,2.5-4.8-11.3-3-.8-7.1,3-3.4,15.6-1.4,14.6-8.2-1.2-4,4.4,6.1,4.7,1.8,2.9-3.9,12.5-3.1,14-6.9,15.1-12.3,23.8-36.8,22.7-54.9-5.1,5-2.6-2.2-5.8-8.8-14.7-20.5-38.2-22.4-10.3-39.6-16.9-12.7-18.9,5.4-23.1-3.7-17.8-14.3-13.6-3.7.9-20.6,8.9-11.1,7.5,9.1,8.6,12.7,7.8-10.4,25.7-10.7,23.9,5.1,1.6-2.1,17.6,6,12.9,6.9-3.5.2,7.9,10.1,5.4,9.8-5,14.4,15.8,10.7,18.6,1.9-10.3-33.9-32.9-14.6-17.7-42.9-5.1-15.5,12.4-9.9,16.2-10.7,13.8-6.8,9.6-28.6,12.5-39.5,1.9-8.6-13.8-20.7-10.1-26.6,16.7,5.6,27.7,49.9,35.6,38.4,16.3,7.9-12.6-10.9-11.2-18,1.9-4.1,11.5,3.5,11.6,2.1-11.9-8-33.5-34.4-44-39.9,4.7,14.3,2.4,10.9-11.9,1.5-13.8-.6-35.1,0-28.7-9.1,9.3-14.3,5.3-33.1,26.8-26.4,3.9,2.5,3.1-1.3,10-.2,8.2,2.1,5.5-3.4,7.4-2.9,8.5-1,13.8,5.7,14.9,5.7,4.3-.2,25-1.9,12.2-5.2-6-1.8-2.3-13.9,1.8-14.3,4.7-4.6,15.2,5.7,15.9,5.4,17.1,4.8,7.4-10.7,7.5-10.8,11.7,2.4,7.2,13.7,5.5,23.3,1.4,8.8-11.5,7.3-3.4,14.8.2,6.1,33.3,42,43,40,2.5-5.5-4.9-9.9,2.3-13.1,1.9-2-6-4.6-4.9-8.2,5.4-8.6-8.7-15.1,2.7-12.4-3.2-4-11.5-12.3-16.5-13-28.9-26.5,25.5-10.4,24.7-15.4-2.7-13.2,26.4-14,26.4-15.6-2.8-5.4-19.8-8.8-21.4-13.2,4.1-9.5-2-6.4-4.7-10.1,14.6,2.6,36.8,11.6,50.1,11.2-10.2-9.7-3.2-7.2,7.7-5.8-13.3-12.9-35.5-8.6-48.4-14.2-29.2-10.5-73-17.9-108.3-13.9-46.9-3.1-86-12.2-131.5-18.7-42.2-4.7,8.1,11.1-23.4,6.4,0,2.6-21.6-1.3-21.2,0,5,11.1-12.4.4-15.6-2.5-34.1-18.4-38.9-3.2-80.4-9.3-20.7-18-43.3-20.1-70.2-23.3-9.2-.7-6.8,10.6-20.3,8.3-6.6-3-62.3,9.2-36.7,12.8-5.7,2.6-18.8,1.2-25.6,2.3,4.8,5.8,19.3,10.5,16.6,10.7-9.4-.3-36.7-12.2-40.5-7.9,2.2,5.5,12.1.1.8,9.9,8.5,7.3,13.1,17.7,20.5,15.4-4.6,3.1-1.4,6.5-1.5,11.5-2.4,6.1-16.5,6.8-8.1.4,8.3-10.2-19.2-25-15.3-33.7-2-2-13.4-2.9-9.9-3.1,7-.8-7-4.3-6.7-1.6-1.4,12.1-10.2,10.7-2.7,19.3-.3,5.1,15.5,6.7,13.3,10.4-16.5-4-37-9.6-52.8-12.1-.5,5.1,9.3,5.1,12.8,8.3-.5,7.1-10.6-1.2-19.7,2.8-9.7,6.3-9.2-6.9-21.2.4-12.4.7-12.7,12.4-25.6,9.7-4.8-2.6,0-4.2,3.7-5.1-5-5.7-22.2-7.4-16.5-3.4,4.8,1.4,1,7.1,4.7,8.8,6.5,5.4-4.5,5.9-6.4,2.3-3.8,1.3-9.3,5.1-13.1,7.9,8.8,9.4.4,4.2-13,2-4.6,4.4,4.9,4.4,6.8,6.4-.3,4.5-15.1-2.3-16.6-6-2.1-8.4-3.9-5.7-8-9.3,16.7,4.2,55.4,3.1,27-10.4-16.1-5.8-32.1-10.9-48.6-11.1,14.7-4.6-20.2-8.9-22.3-7.3-8.9.3-18.3,5-23.6,6.2-2.1-1.9-7.6-1.1-7.6,1.1-1.9,4.1-20.7,5.1-19.1,8.7,0,2.3-6.9.5-7.5,3.6,22.3-4.4-9.5,16.4-9.3,21.2-13.5,11.8-29,8.3-30.8,23.7-1.6,22.5,17.5,25,29.1,11.7.3-2.1,3.3,4.2,3.3,4.9,0,6.6,11.3,11.7,7,17.2-6-.4-8,2.2-8.7-.3,2.9-3.1-4.9-3.8-1.8-6,1-.6.9-5.6,0-5.6-12.5,8.1-14.8,4.8-12.1,21.9,6.4,8.1-7.7,6.9-12.3,8.3-11.7-.4-8,14.8-21.3,16.9-3.8,1.2-4.4,1.8-5,4.5ZM1430.7,252.9c.3-.1.6-.2,1-.2h0c4.6,0,7,12.3,4.3,11.3-4.8-1-10.9-2.2-10.7,3.9-1.4,1.6-5.1.2-3.9,2.5,2.2,2.5,7.7,5,7.7,8.6,12.8,7.8,8.4,5,9.2,11.9,4,2.5,2.8-1.2,5.6-2.2,3.5,0,7.9,6.7,8.3,7.8-5.8,3.5-2.8.5-6,.4-3.8-.5-3.4-.8-4.6,1.1,1.5,7.8,8.5,12.2,9.6,18.6,2.5,10.3.5,8.6-8.8,10.7-5.7-.2-19.8-7.7-20.7-12.8,1.8-9.9.2-8.6,6.6-13.8-4.1-4-8.9-7.6-12.4-11.3-7-7.6-8.1-9.3-8.1-11.8s-2.5-6.3-5.4-7.5c5.8-11.8,24.7-16.7,28.4-17.2ZM1291.2,282.9c2.2-3.7,5.6-14.2,7-14.9,3.9-2.2,4.5-13,9.7-13,1.3,0,2.1.5,2.1,1.3,3.3,3.2,8.8,1.4,11.5,3.1-1.4.8-6,4-5,4.3,8.3,1.4,5.4,6.3,8.4,6.6,4.2-.7,7.8-4.1,12.2-4.1,5.4-.9-.4-2.6-2.1-3.2-1.8-.3-3.4-2.8-4.4-3.8,2-2.1,4.4-4.8,7.2-5.3,3.8-.7,7.6-2.2,11.2-2.7l4.2-.6s0,0,0,0h0s0,0,0,0c-1.7,1.8-6.6,2.3-7.3,3.9,1.9,2.9,2.1,2.6.5,6.2-.6,2.2,1.2,2-2.9,2.8,2.7.7,10.7,8.1,15.1,11.6,2.6,2.1,6.4,4.7,8.6,5.7,2.8,1.3,4.5,2.7,5.5,5,1.9,3.7,1.4,5.2-2.1,7.2-1.9,1.1-4.8,1.6-10.7,1.8-4.9.5-22.4-4-24.2-6.2-1.3-1.5-2-1.6-8.3-1-5.2.5-8,1.2-11,3-5.3,4.6-14.7,4.6-21,1.3-2.2-1.2-5.4-7.9-4.4-9ZM1198.2,191.3c3.1-4.7,1.6.7,6.6.7,3.2,0,3.9-.3,4.1-1.7,6.8-4.2,10-5.6,11.6-4.8,1-1.1,3.1-7.2,2.7-7.6-3.8,5-1.8-2.2-1.3-7.9,4-2.4,17.5-8.3,6.5-13.4-8.4-4.6-4.5-4.5-4.5-10.5,1.4-4.2,7.8-9.9,12.7-10.2,5.6-3.5,7.9-10.4,10.2-12.8,1.7-.7,3.6-1,5.5-1h0c1.9,0,3.8.3,5.5.6,5.7,1.6-3.7,6.6-7.6,11.2-5.5,6.6-6.3,10.9-6.6,18.8-.3,6.4,4.3,5.1,8.4,8.1.2.6,2.6.3,6.6-.8,5.8-.2,11-2.7,15.9-3.1,9.6,0,8.2,1.3,4.7,5.3,0,1.1-4.3,1-12.8,0-11.4,1.1-6.9,8.3-13.9,3.7-2.5.4-5,4-4.5,5.7.1,6-3.5-.3-3.6,15.7.5,4.4-.9,6.8-3.9,6.8-.4,1.9-6.8,7.3-7.9,2.6,1.5-2.5-10.6-1.3-12.8,1.2-3.5,2-14,4.3-14.1,0-4.1-3.6-14.5,5.3-14.6,2.2,6.8-6.9,7.3-1.8,7.1-8.9Z"/>
  <path class="st0" d="M1285.7,332.2c-3.3-.7-11.3-3.3-15.2-3.1h0c-1.3,0-2.2.4-2.3,1.3.2,3.6,19.5,5.3,17.6,1.8Z"/>
  <path class="st0" d="M1917.5,528.2c1,1.5,2.7,1.7,3.6,3,1.6-4.9,5.8-2.2,9.4-3.5,1.1-6.4-2.8-11.8-8-10.6-2.6-.8,0-4.3-2.6-4.3-2.7-.1-4.7-1.8-7.2-2.2h0c-.3,1.9,1,4.9.9,7.3,8.9,5.5,1.2,5.7,3.9,10.4Z"/>
  <path class="st0" d="M2073.6,632.8c-3.4-6.8-36.6-15.4-45.8-20.3-9.3-6.8-9.3,2.2-14,2.3-4.4.2-4.8,8.4-9.6,8.6-1.5.4-9.4-7.3-5.4-9.4,2-6.7-5.9-11.6-11.6-12.8h0c-6.2,5.7-12.4,3-14.1,3.9,2.3,4.7,14.1,11.2,17.4,11,7.5,5.4-7.6,3.2-8,4.1-.9,2.5,13,13.7,10.5,9.5-1.7-3.2,2.8-1.9,3.6-1.5,1.7.8,3.9,2.1,4.7,2.8.9.7,2.7,1.4,4.1,1.6,29.9,5.9,25.5,16.9,12.2,28.4,0,1.3,7.7,1.2,8.6,0,9.7-4.2,8.7,6.9,17.6,6.9,12.1.1,5.9,0,7.9,4.5,1.9-3.9,9-19.2,13.4-15.6,3.2,1.4,9.9,3.6,9.9,7.8,4.7,14.4,26.4,11.9,27.2,11.4-9.1-5.4-12.8-13.9-18.8-19.9-8.7-9.5,2.5-5.7,2.7-8.4-1-4.3-5-4.2-7.5-6.4-7.7-2.5-2.6-10.3-4.9-8.3Z"/>
  <path class="st0" d="M1902,454.9h0c-2.1,0-4,.9-4.6,2.8-1.2,2.4,2.2,17.8,0,14.8-2.7-3.4-3.1-.6-.9,6.3,2.4,4.3,1.9,7.7,3.1,11-.1,3,3.3,5.7,5.1,9.2,1.9,3.6,3.2,4.3,4.5,2.4,1.5-1.9.8-5.5-1.4-7.4,4.6-4.4,12.8,6.6,12.8,8.1,0,2.4.3,3.2.8,2.4,2.5-1.7,7.1,3.7,4.7-1.1-1.5-2.7.2-3.8.7-6.1-1.5-3.4-.8-2.6.5-4.9.9-.6,1-1.1.3-2.6-1.2-2.1-2.7-2.4-2.7-.5-2.5,2.2-8.1-3-11.5-2.6-5,.3-3.3-2.8.3-2.7,0-.9-3-2.7-4.5-2.8-2.9-.9-2.4-6.8.2-6.9,4.9-5.4-.1-10.4-.2-15.5.3-2.1-3.8-4-7.4-3.9Z"/>
  <path class="st0" d="M1889.9,411.8c-3.6,11.1,1,11,3.5,17.9,2,2.6,2.6-4.2,3-5.4.7-1.9,1.4-6.5,1.5-10.2.6-5.7-.7-8.2-2.5-8.3h0c-1.8-.1-4.1,2.2-5.5,6Z"/>
  <path class="st0" d="M1884.8,534.1c-1.3,1.4-.5,5.7.9,3.4,4.1-3,9.4-14.2,14-15.4,2.3-.4,2.7-2.2.5-2.7-2.5-1.7-1.3-3.7-.2-4.6-.2,0-.7-.2-1.5-.9h0c-3.2,1.7-2.3,5.6-4.5,8.5-.4,5.6-6.5,6.6-9.2,11.6Z"/>
  <path class="st0" d="M1806.3,648.6c1.6,2.6,7.7.5,7.8,4.2,6.4,4.9,18.5,2.7,24.5,5.6,2.9,2.3,18.5,2.4,19.6,3.4,5.2.8,13.8,1.6,14.6,1.5,3.5,1.8,7.2,3.2,10.9,3.2,8.9-5.6,26.2-.7,34.5-2.8,4.4-2.8,14.6-.5,17.8-3.2,1.3-1.3-.9-1.6-8.8-1.1-9.3,2.2-24,.4-28.6,1.8,0-2.8-5.5-.7-7.5-2.4-11,5.2-22.7-1.4-30.2-3.5-12.2-1.6,4.3-3.7,4.1-5.1-.3-.5-2.7-.8-6.4-.7-20.2-5.3-15.9.1-19.8-.3-8.4,2.6-13-7.8-20.6-6.7-9.7,3.9-6.1-6.5-5.7-11.8.4-8.7,1-10.5,3.1-9.4,10,1.3-.3-4.9-1.3-9.7-6.2-2.2-6.5.5-3.1,3.6-4.5,1.9-9.8-8-13.3-10.6-3.1-2.5,3.1-6.2,0-9-.6-4.7-4.7-3.5-7.4-7.4-1.6,0-6.2-5.3-6.4-5.4-7.8-2.4-14.2-8.8-19.1-13.6-4.5-3.6-5.7-9.8-12.1-9.9-2.9.1-7.4-3.2-9.7-3h0c-1.2,0-1.7,1.1-1.1,4,6.5,10.7,15.6,16.8,23.4,26.4-.4,1.8,2.9,10.5,4.3,10.9,2.4.8,8.7,12.2,9.2,16.5,3.7,7.9,10.7,15.2,16.5,20.9,7.5,7.4,7.7,7.5,10.4,6.6,10.7-1.5.4,6.1.3,6.6Z"/>
  <path class="st0" d="M1939,587c-.3-.8-.5-1.2-.9-1.2h0c0,0-.1,0-.2,0-7.9,6-11.8,9.1-23.2,4.1-3.8-3.5-4.5,1.4-6.9,2.1-7.2,1.3-6.4,25.5-11.2,26.2-2.7,9.3,3.9,5.1,4.2,10.2.5,4.1-1.5,7.9-1.2,11.8,3,2.3,7-.1,7.1-3,.2-13.4.7-17.4,2.2-17.9,2.3-.7,2.8.2,1.6,3.3,8.1,11.2,6.4,14.2,9.3,17.4,4.4,3,5.4-5.4,5.5-8.8-2.3-2.5-10.1-17.3-8.9-18.8,2-1.7,11-6.6,11.1-7.2,0-2.3-2.1-3.1-4.8-1.7-6.2,2.3-14.6,11.9-17.1-3.7.9-4.3,1.6-4.6,12.5-3.8,8.3,0,24.4,1,20.9-9.1Z"/>
  <path class="st0" d="M1964.7,345.2c3.6-4.2,4.1-6.1,9.5-8.3,6.4.6,2.3-7.3,5.2-1.9,5,5.3.8-6.5,5.8-1.5,4.1,2.7,4.5-5.7,3.1-7.3-3-4.2-1.2-9.2-4.3-12.8-3.1-3.7-.4-3.1,1.7-4.2-.8-10.8-10-14.8-12.8-22.1-1-.9-1.8-1.4-2.5-1.7,1.1,0,2.1.1,2.8.4,14.3,6.3.4-4,10.3-4.3,2.9,0,5.7-1.7,5.7-3.3-4-2.2-3-5.5,0-7.7-2.2-2.7-3.7,0-3.9,1.6-1.1.5-6.6.9-10.9-.6-7.2,0-11.9-9-18.5-9.7h0c-7.4,5.3,7.5,4.8,5.4,13.2-.1,9.1-8.3,3.4-3.9,11.9.5-1.6,4.2,1.2,4.8,3.7,1.2,2.1,2.8,2,3.9,1.2-.2,7.6,8.6,13.7,4.7,19.9-7.4,13.4-8.5,2.2-10.8,3.8-3,3.8,5.9,3.7-.9,8.2-1.9,2,1.2,3.6.2,5.1-2.5.8-5-.6-7.6,0-2.1,1.1-11.1,0-11.2,2-4.4,4.3-6,7.5-8.7,11.8-3.3,2.6-5.3,4-2.7,6.8,4.1,2.7,6,5.6,7.6,11.2,1.6,2.2,4.2,3.4,5.8,1.7,2.8-4.9,1.9-8.3,1.4-14.2-.5-4.4,9.4,7,7.4,1.7,0-9.6,7.5,1.7,6.7-8.5.4-4.6,4.3,3.4,6.9,4ZM1968.4,285.5c-.8.5-1.2,1.7-1.5,2.9-.3-.5-.8-1-1.6-1.4-1.4-.6.6-1.2,3.1-1.5h0Z"/>
  <path class="st0" d="M1879.4,551.4c-5.8,10.1-11.3,11.7-18.7,20.6-12.7,2.4-17,18.4-22.8,12.5-.7-1.9-3.2-.4-4.8,3-1.5,2.9-1.4,6,0,13.4,5.7,12.3,4.6,3.4,6.6,16.7,19.5,2.3,6.3,10.8,28.7,10.2,0,0,11.8-.2,11.9-.4,1.8-6.6.8-15.1,5-19.2,8.3-4.4.8-15.3,9.1-14.9,6.1-1.3-13.1-22.8-.8-26,7.1-9.1-5-12.7-4.8-14.6-1.2-5.6-2.3-7.5-3.6-7.4h0c-1.6,0-3.4,3.4-5.9,6.3Z"/>
  <path class="st0" d="M1940.6,547.5c2.2.4,1.7,2.8,2.8,4.4,5,1.2.7-19.7-1.5-22.2-.5.3-.6-.8-.2-2.7-4.4-6.3-5.4-5.3-5.7-16.8,1.2-2.9-2.4-4.7-5.3-4.9h0c-1.7,0-3.2.4-3.2,1.6,7.7,15-.5,10,9.2,19.9,1.4,5.8-.5,5.2-4,3.2-.7,2.9-2.2,9-5.1,5.8-2.4-2.4-4.7-1-6,1.4-4.4,3.1-6.7,4.4-6.2,9.7,4.4-.2,6.8-1.4,7.4-2.4,3.1.2,2.9-3.5,4.6-2.6,3.2,3.6.5,8.9,3.9,11.7,3.7,1.5,8.4,7.3,8.7,4.5,1.9-5.1-1.5-10.2.5-10.7Z"/>
  <path class="st0" d="M2206.7,878.6c-4.9,3.8-9-2.2-6.5-5.6,3.6-7.5-6.7.4-4.7-3.7,3.2-5.7,1.5-11.1-3.4-15.6h0c-.9,0-1.6.4-1.6.9,1.3,3.7.4,20.5-1,23.3-4,7.7-8.9,8.4-14.6,12.8,3.4,2.4,9,8.9.9,10-5.2,1.5-5-8.3-18.7,2.1-7.9,7.5-19.6,14-27,17.2-10.7,4.2-21.8,10.2-30.6,16.1-3.3,2.1-3.3,4.9.2,4.9,7,1.6,3,6.5,17,0,6.4-2.8,11.6-7.5,15.5-11.1,3.7-3.3,7.6-5.2,12.9-6,5.3-5.6,15.9-10.3,22.4-17.1,6.9-3.3,6.2,2.8,14.7-3.9,4.9-1.7,13.9-16.2,18.6-13.7,5-1.3,18.2-16.7,6-10.7Z"/>
  <path class="st0" d="M617.1,465.4c5.3,4.4,5.5,1.2,9.6,1.1,3.5-2.7-2.7-4.6-7.2-4.7h0c-3.5,0-6.1,1-2.4,3.6Z"/>
  <path class="st0" d="M642.5,450.3l2.5-1c-3.5-1.8-11.2-7.5-13-8.1-3.6-1.1-8.7-5.4-8.7-7.4s-.2-.8-.5-.5c-6.6.8-15-6.5-25.1-6.6h0c-1.5,0-2.9.1-3.9.4-1.4.4-4.4,1.2-6.6,1.7-5,1.1-13,7.9-8.9,8.7,15-3.9,13.7-2.3,24.5-1.9,9.9,2.7,17.6,8.3,18.5,15.1-.5,1.4,17.5,1.1,21.3-.5Z"/>
  <path class="st0" d="M686.8,464.1c1.1,3.7,14.8,2.4,10.9-1-1.3-1-3.9-1.6-6.3-1.6-2.3,0-4.4.8-4.6,2.6Z"/>
  <polygon class="st0" points="653 450.6 653 450.6 653 450.6 653 450.6"/>
  <polygon class="st0" points="691.4 461.5 691.4 461.5 691.4 461.5 691.4 461.5"/>
  <path class="st0" d="M1924.9,1151.1c-1.4-.2-3-.3-4.8-.5-23.5-1.9-50.4-6-73-4.3-2.5,0-5.5-.3-2.6-2.8,15.8-13.6,95.2-23.7,74.1-34.3-3.8-1.7-9.2-3.4-13.8-4.6-29.7-8.2-56.3-19.6-86.1-24.2-4.4-.7-8.5-1.8-11.7-4.6-2.4-2.1-3.1-4-4.5-4.1-1.1-.1-3.1.9-5.5,1.7-4.4,1.5-10.7,2.9-18.4,3.9-45,5.9-128.5,5.1-149.2-9.3-2.9-1.4-5-.9-8.2.3-47.8,24.8-44.6-2.7-92.4,18.5-14.5,5.6-33.6,15.7-48.7,8.4-6.8-3.5-14-6.9-21.8-7.2-14.7-1.3-29.7-3.2-44.7-7.4-5.3-1.5-10.7-2.7-16.2-2.4-3.3.1-6.6.8-9.9,1.7-69.5,22-138.1,21-207.8,21.9-18.8.3-37.9.7-56.9,1.9-7.4.5-14.5.7-22.7,2.4-76.7,22.4-91.7,56.3-174.5,38.9-13.4-2.4-26.9-5.7-39.6-8.6-5.3-1.3-11-2.1-15.6-5-3.7-2.5-4.7-7.8-7.7-12-3.2-5.2-10.2-10.1-13.3-15.4-2.2-3.5-2.4-7.2-3.8-10.9-1.2-3.3-3.8-7.8-4.3-12-1-7.1,4.2-13.1,9.2-17.5,3.3-3.1,2.9-5-1.6-4.8h-.1c-4.7,0-10.8,1.2-15.5,2.6-5.9,1.8-11,2.6-14.4,5.1-4.2,3.2-4.8,9.3-8.9,12.7-1.8,1.6-4.1,2.9-5.5,4.7-2,2.7,3,7.7,3.6,10.6.8,2.3-2.2,2.6-3.8,2.8-3.2.4-7.2.1-11,1.2-4.3,1.2-10.2,4-9.4,7,.5,1,1.1,1.8,2.1,2.5,3.9,3.2,7.9,5.5,12,8.3,1.3,1.1,3,1.8,4.1,3.1.5.7-1,.9-4.1.5-3.7-.5-9.2-1.8-13.6-1.9-4.6-.3-9,.9-13,2.5-.9.3-1.8.6-2.7.8-18.6,5-73.9-9-93.3-7.1-2.6.3-4.4.6-6.1,2.1-1.7,2,.8,4.3,2.4,5.6,3,2.6,8.5,5.7,11,7.7.8.6,2.3,2,.9,2.7-1.8.7-4.1.4-6.2.2-4.8-.6-10.6-2.3-16.5-4.4-3.8-1.3-7.8-2.9-11.6-3.9-2.2-.6-3.1-.5-3,0,.2.6.6,1,1.1,1.6.9,1.2,1.3,2.3-.7,2.9-.3,0-.5.1-.9.2-2.3.5-6.6.4-9.3.2-30.1-1.5-54.2-6.2-82.4-1.9-9.9,1.4-20.1,4.5-29.4,6.5-5.6,1.3-11.2,1.4-16.8,2.8-7.2,1.5-14.5,6-21.1,7.5-5.8,1.2-11.1,1.1-17.2,2.2-57.7,10.5,26.2,30,59.8,42.9,5.4,1.9,11.9,4,17,4.8,322.2,11.4,934.5.3,1256.5,4,6.8.2,13.1-.8,20-3,20.9-6.7,112.8-35.1,105.5-42.6-.8-.4-2.3-.7-4.1-.9Z"/>
  <path class="st0" d="M657.7,466.8l1.8,2.4c4.9-7.7,10.2-6.6,18.4-4.4,4.9-6.3-5.4-9-6.6-10.6-2.1-1.7-12.8-3.6-18.2-3.6-1.2,0-2.2.1-2.7.3-3.1,1.4-3.3,2.7-.4,2.7,8.7,12.9-7.6,4.3-9.5,7.8,2.1,7.8,14.2,1.6,17.3,5.3Z"/>
  <path class="st0" d="M2009.4,901.5c-4,1.7-12.8,1.4-12.8-3,.1-.7,0-.9-.2-.8h0c-.7.2-2.4,2.8-2.5,3-2,3.9-7.5,18.9-2.7,20.9,9.7,1.9,18.9-11.2,22.4-16.5,2.6-4.2,1.5-5.1-4.2-3.5Z"/>
  <path class="st0" d="M2097.5,784.6c-2.1-4.1-5.3-7.7-7.5-11.9-3.6-6.2-6.5-14.9-10.4-21.5-1.9-3.3-4.2-6.1-6.5-9.1-4.4-5.5-7.2-11.6-8.9-18.5-2-9.4-5.6-18.3-8.5-27.4-1.5-4.6-2.7-11-4.7-13.2-3.7-4-7,3.4-8.4,6.5-1.9,4.6-3.5,10.1-4.8,14.8-2.3,7.2-3.7,18.9-12.2,18.7-4.4-.3-8.5-2.6-13.3-5.9-5.8-3.8-9.6-9.2-8.5-16.3.4-4.6,1.7-9.3-.6-12.7-5.3-7-18.2-6.7-25.7-3.8-6.9,2.3-12.2,9-17.1,13.1-1.7,1.4-3.6,2.6-5.7,3.3-3.9,1.4-8.2.9-12.3.8-11-.7-18.8,5.5-26.8,15-11.6,15.4-18.7,24.9-38,31.4-15.2,5.7-29.9,9.6-34.9,27.3-3.8,12.9-2.8,26.6-2.3,39.9.2,7.4,0,16.4-1.5,23.2-.9,4.7-3.5,9.5-3.1,14.3,2,9.3,15.9,8.2,23.4,6,25.1-6.6,58.7-26.7,80.8-21.2,10.2,2.3,13.5,11.3,19.7,18.3,4.6,5.1,10.9,8.3,15.4,13.3,4.4,4.8,6.4,11.3,11.5,15.2,12.3,8.8,37.7,5.6,49-2.4,8.3-5.8,13.9-14.4,20.8-21.7,17.8-18.6,25-23.4,35.1-48.6,2.8-7.8,9.5-19.6,6-27h0Z"/>
  <path class="st0" d="M506.8,479.4c8.6-.6,16.3,18,23.6,17,24.3,4.6,32.3,28.1,44.3,40.4,9.1,2,15.8,10.7,19.9,8.8,11.7-30.4,27.4,29,12.8,34-13,12.1-19.6,31.6-16.9,47.3-12.2,10.3,31.2,57,34.1,73.1,49.9,55.7,46.5,16,46.6,111.3,8.6,57.4,2.8,150,53.9,185.1,9.9,5.7,33.9,17.7,43.3,7.2,11.7-3.9-6.2-2.9-17.1-13.3-3.2-6.1-12.9-11.5-13.4-18.3,11.3-22.1,17-19.5-4.2-30.8,12.3-8.4.2-20.5,12.4-24.9-3.9-13.2-10.5-1.5-11.5-14.4,13.3,6.3,20.7-2.2,13.9-11.5,11.9-2.9,43.2-5.6,16.6-33.9-9.9-10.5,26.5,12.2,27.5-7.9,10.8-18.6,26.1-41.9,21.4-61.5,12.7-16.1,34.7-12.2,44.3-27,15.8-41.5.6-60.9,32.9-96,10-42.2-64.9-47.8-91.4-64.2-16.6-12.7-12.3-49-45.6-45.1-12.7.9-13.6-8.1-17.9-13.4-17-9.3-14.9-11-14.4-23-17.5,2.5-31.9,5.5-46.5.1-6.1-7.2-9.6-12.4-11.6-10.2-3.1,10.7-10.4,13.3-7.5-1-3.9,0-18.1,10.4-22.4,9.4-3.5-.9-8.2,6.1-7.4,11-1.6,2.7-9.2,6-8.7,9-23-19.4-54.4,17-36.6-48.2,0-5.5-14.8-10.3-18.5-8-37.6,8,3.2-28.3,1.1-40-2-3.6-21.4-.9-23.5,3.5-15.2,35.2-46.3,15.4-45-11.2,5.6-29.2,21.8-61.4,51.7-51.3,26.5,3.4,17.3-14.5,35.8-6,12.8,12.3,15.7-5.3,16.1,14-3.1,8.9,3.5,20,9,24.1,11-.9,5.2-28.3,4.5-31.1-4.7-34.4,62.9-40.2,56.2-74,2.1,1.2-.3,4.1,5.4-.8,5.3-11.2,19.2-10.5,18.9-13.3,15.8-.6,10.5-9.4,11.2-10,9.6-11.8,28.2-17.8,41.9-20.9-34.4,25.5,23.5,3.3,32.1-5.8-4.9-13.9-11.2,8-27.1-6.6,3.9-6.3,10.8-16.3,2-16.2-8.2,2.8-4.8.5-7.5-2.3,6.8-6.4,18.5-4.3,25.1-4.3,23.3,3,25.4-8.5,36.1-8.6,4.8-.6.7,1.9-1.2,3.8-42.5,36.3,6.3,19.2,8.1,26.3-1,13.2,10.6-1.5,9-5.6-4,.5-5.9-5.2-1.3-7.6,2.8-6.5-6.7-1.6-13.7-8.3,6.4-5.8,5.3-2.6,7.9-7.6-7.2-3.5,19-20.3-13.9-28.8-10.3-50,6.4-32.9-29.4-21.9-13.4-16.5,11.9-8.6-14.7-27.5-23-6.1-42.5,17.1-36.9,32.9,0,2.1-3.2,8.8-5,10.4-7.1,5.1-14.9,7.9-23.3,9.3,3.4,10.1-14.2,31.9-15.4,22.9-11.8-2.9,9.2-19.9,3.5-25.2-19.4,2.4-26-19.1-43.9-13.3,5.1-12.9-8-7.6,4.3-23.1,16.1-8.6,39-27.8,57.1-20.4,8.8,4.1,1.7,2.3,12.9-.1,8.8-6.6,7.6,3,17.1,0-1.5-15.1,32-53,29.2-29.2,15.4-2.5,3.3,1.8,5.1,5.4,18.2-2.3,20.4-.3,12.8,4.7,3.4,8-34.6,8.1-30.5,13.7,14.9.4,25.2-3.9,25.5,7.3,3.6,5.8,31.2,14.3,30.5,10.3-5.1,1.1-8.1-8.5-1.6-7.4,6.3,4.2,5.2,1.5,10.3-3.4-18.2-23.1,19.6-4.9,28.1-21.5-5.2-4.8-18.6-8.2-23.3-13,20.1-14.7-25.5-19.3-19.7-26.1-6.3-8.4-25-1.7-36.8-5-8.1-7-53.1,20.4-29.5,22.3-21.1,30-21-3.7-21.7-10.3,3.9-4.2,30.1-11.6,28.9-12.9-7.5-2.3-19.1-1.3-25.9,2.4-18,16-37.1,30.6-58.6,35.2-30.3-1.8,9.5-5.7,12.6-13.8-17.7-6.4-.2-14.6,6.9-21.2-1.3-1.8-20.5,2.5-21.6,3.6-8.4,10.9-2.5,4-5.4.6-16.7,2.9-22.7-9.8-38.4-10.6-16.4.6-31,8.3-43.7,15.8,63,7.1-13.8,19.6-30.7,10.5-65.2,12.9-131-24-191.6,13,16.7,15.9-35.6,9.1-33.1,17.2,3.1,11.8,11.1,7.1,21.1,7.2-11.8,8.5-34.2,8.4-46.4,16.6-20.3,19.4,15.5,12.6-5.5,21.1-4.1,3.8,13.7-2.1,13.1,1.4,26.2-7.4-15.4,12.5-29.5,17.5-22.6,2.9-28.5,4.4-33.6,11.3,4.1,1.2,26.9-8.4,28.2-4.5,22.8-9.7,153.6-64.7,148.9-14.6,3.4,7.3-5,16.3,2.6,17,7.4,3.5,9.5,32.1-1.7,29.6-5.6.7,13.3,16,10.1,15.8-10.3,14.2-24.6,39.1-34.7,54.5-14.3,29.9,12.7,48.5,15.3,73.8,3.3,13.3,5.6,14.1,7.9,30.7,9.7,4.4,5.3,8.2,4.1,14.3,25.9,34,11.6-7.5,4.1-21.3.3-13.9-.3-7.4-5.5-15.5-5.5-15.1,10.8-17.5,9.2-2.6,1.4,13.1-3.4,5.7,4,13.5,11.3,25.8,30.6,37,26.1,64.6,17.5,15.2,43.1,32,63.2,25.5ZM609.2,286.3c-4.2,4.2-6.5,4.8-6.6,1.8,2.7-14.5,11.9-29,27.2-29.6h0s0,0,0,0c0,0,0,0,0,0-9.8,6.1-14.1,20.9-20.6,27.8ZM655.5,275.7c-4.5,3.2-21.2,12.1-26.5,9.3-1.3-1.4,4.1-2.8,8.3-5,9.2-2.7,9.8-2.5,16.7-4,.8-.2,1.2-.3,1.4-.3h0ZM673.7,267.1h0c3,0,1.8,2.4-2.1,4.1-3.5,0-23.5,3.2-14.4-1.3,4.8-.8,13-2.8,16.5-2.8ZM652.8,259.3h0c1.2,0,2.3.9,2.9,2.7,2.1,5.9-1.8,9.3-4.8,4.2-5.5-3.1-7.6,10-11,12.4-3.5-3.5,5.4-13.9-9.3-2.9,7.1-9.8,8.6-6.9,3.8-15.2,7.9-1.1,14.6-.9,18.4-1ZM623.3,239.9c2.3-.5,4.1-.8,5.7-.8h0c8.3-.1,7.1,6.4,6.3,14.5-3.2,1.2-4.7-2.2-10.5.5-5.7-9.7-17.5-1.3-29-2.3,13.4-10.8,14.8-8.2,27.5-12Z"/>
  <path class="st0" d="M673.7,76.9c-2.6,4.8,5.6,4.3,5.6,8.4,5.3,3.6,14.4.4,19.8-4.7,3.5-3.1,6.3-6.8,5.6-10.5-11.8,1.6-13.4.6-19.2,2.5-.5,7.5-6.6,1.8-11.7,4.4Z"/>
  <path class="st0" d="M1093.4,184c8.7,1.2,4.8,1.1,1.7,5,3.9.6,6.9,7.6,8.4,8.1,7.8-2.9,5.4.1,7.7,2.7,2.7,4.6-.4,6.4-4.3,5.9-4.9.1-.5.4-5.4,4.9,12.1,1-9.9,7.2,2.1,8.1,4.1.2,7.2,2.1,3.4,2.1-3.3,1.8-9.4,5.8-11.5,8.6,2.4.4,12.7-1.7,13.5-2.6,3.9-1.2,12.5-2.4,17-2.2,3.9.2,11-2.2,11-3.8-6.5-3.9,4.1-5.3,1.8-10.2-9.5-6.7-6.1,2.8-9-9.1-1.5-3.6-6.1-4.4-7.1-7.9-.8-3.3-3-6.1-4.7-6.2-2.2-2.1,1.5-7.2,3.3-8.9,2.1-2.1.6-3.1-4.8-3.1-1.6-.2-6.6,0-5.1-1.7,8.5-3.4,8.3-9.7,5.9-9.7-.8,0-1.8.7-2.8,2.4-2.5,4.9-8.1,1.1-10.5,4.7-2.3,5.1-5.9,3.8-7.6,5.2.2,3-2,4.9-2.9,7.8Z"/>
  <polygon class="st0" points="629.8 258.6 629.8 258.6 629.8 258.6 629.8 258.6"/>
  <path class="st0" d="M1071.1,217.3c1.7,3.6,9.1,1.7,13.4-.5,4.3-2,9.2-1.7,10.3-5.4.3-7.4,6-14.1,3.6-17.1-2.2-1.4-5.1-2.2-7.9-2.3h0c-2.8,0-5.4.7-7,2.6-.2,6.9-8.2,2.6-9.9,5.6.2,3-.9,5.8,1.3,6.3,6,2-9.2,10.5-3.8,10.8Z"/>
  <path class="st0" d="M1019.5,126.2c-4,.6-5.1,1-4.5,2,7.9.7,12.8-1.1,4.7,5.5,0,.9,1,1.1,4.1.9,7.7.8,14.1,3.8,21.4,1.4,5-1.9,22.8-6.2,23.3-11.2-7.1-3.2-3.3-7.9-6.2-7.4-1.1-.5-2.7-.6-4.4-.5h0c-7.6.3-19.3,4.6-19.8,3.4-4.2,4.4-6.4,0-10.3-2.2-5-3.3-9.1,1.7-12.9,4.6-.5,2.1,16.7,1.7,4.5,3.5Z"/>
  <polygon class="st0" points="1117.3 163.9 1117.3 163.9 1117.3 163.9 1117.3 163.9"/>
  <path class="st0" d="M1405.3,786.9c4.3,3.1,8.2-.7,11.9-.9,7-1.5,9.3-17.3,12-23.2,2.8-10.8,8.8-20.2,10.6-31.3.9-17.1,15.7-18.9.6-43.9,0,0,0,0-.1-.1h0s0,0-.1,0c-4,9.8-11,15.9-13.6,20.9-3.5,3.9-13.1,9.9-17.7,10-3.1.9-1.9,4.5-3.6,7.1-3.4,14.2,4.9,17.5-4.6,30.6-3.8,3.6-2.9,30.4,4.7,30.8Z"/>
  <path class="st0" d="M634.2,66.5c3.4,4.9,12.8,1.2,14.3,1,5.3-.9,13.4-1.8,17.9-2.1,11.1.3,26.3-7.4,7.4-6.5,3.3-4.3-.6-4.5-3.8-3.5-7.5,2-3.4,5.8-9,5.9-6.4.1-6.3-4-12.6-4.7-8.7.3-1.2-3.3.4-3.6,5.1-1.6-1-2-2.6-2h0c-7-.2-37.1,5.9-38.1,8.3,2.7-.7,24.7,5.9,26.1,7.3Z"/>
  <polygon class="st0" points="704.6 70 704.6 70 704.6 70 704.6 70"/>
  <path class="st0" d="M689.5,58.8c3.9,3.5,13.5,6.3,16.1,6.2,11.5-5.1,9.9,3.1,11.6,3.2,10.6.1,16.9-9.4,22.2-8.9,1.3,2.2-7.8,6.3-4.8,7.3,6.6,1.3,35.1,1.9,36.5.8,4.5-.2,21.6,1,21.9-5.1-15.7-.2-48.6,3.9-39.7-3.5,16.5-5.3,30.6,1,43.7,1.7.8-2.4,12.1-4.7,12.3-6.6,5-6,17.1-6.1,20.9-7.9,7-4.5,13.7-6,19.3-6.6,10.9-3,17.6-4.4,29.2-1.3,0,1.7-4,2.8-12,3.5-5.3,1-34.6,1.2-32.2,9.5,21.6,14.9,19,2.7,44.5,8.5,21,4.1-2.5,17.7,3.3,26-3.9,9.7-6.5,21.4-8,27.6,3.7,3.1-1.8,8.2.6,19.5-1.5,5.4,6.9,15.9,8,21.1,9-.7,19.3,9.5,24.6,5.9,2.4-3.3,4.5-6.4,7.5-9.5,4-5.9,7.7-11.1,14.4-14,.7-5.7,9.6-9.5,10.4-12.4,6.2-4.5,11.9,2.1,15.9-2.5,8.6,0,18-10.9,24.2-12.4,10-5,24.6-1.9,38.2-8.1,8.7-2.4,15.8-8.5,20.3-12.9-7.3-8.8-4.3-7,13.6-18,4.7-1.8,9.4-3.6,12.9-5.1-7.4-7.7.6-9.9.3-11.8-2.1-18.9-1.1-13.9,27.7-21.6,8.6-1.5,6.5-2.8-5.6-3.3-14,.6-28.3-2.6-39.1-5.8-3.5-1.1-13.9-1.7-25.4-1.8h0c-1.6,0-3.3,0-5.1,0-4.5,0-8.9.2-13.2.5-7.8.5-19.4,1-25.7,1.3-22-.3-54.1,5-73,5.1-10.7-5.7-27-4.2-36.8-4.3-25.5-.9-48.8,3-72.3,4.3-22.5,2-19,1.3-28.2,3.9-11,4.2-22.9,1.6-14.1,13.7,17.2,3.9,10.2,5.1,7.3,8.1-10.3,3.3-14.5.6-22.3.5-3.6-3.1-16.5,1.5-13.1,1.6.6,7.2-7.8,7.7-6.6.2-7.6,1.7-10.6,2-26.7-.4-2,.8-4.9,3.7-3.6,3.7Z"/>
  <path id="rim" class="st1" d="M554.5,1199.9C-194.8,971.5-175.1,220.2,555.4,0h1258.4c760.9,234.9,721.9,985.1.4,1200l-1259.6-.2h0Z"/>
</svg>