<?xml version="1.0" encoding="UTF-8"?>
<svg id="Calque_2" data-name="Calque 2" xmlns="http://www.w3.org/2000/svg" viewBox="0 0 1780.16 890.08">
  <path d="M1708.84,763.61c-2.05,11.71-9.09,4.39-20,19.05-8.8,11.21-14.67,2.41-22.56,10.85-4.7,7.5-14.97,12.8-21.43,14.24-9.72,9.01-23,19.62-37.08,14.17,1.11-14.01,28.4-18.61,39.02-25.35,22.64-21.03,46.25-18.3,42.85-53.56,9.76-4.51,5.41,20.99,19.2,20.61Z" fill="none" stroke="#c12827" stroke-miterlimit="10"/>
  <path d="M1042.84,344.39c10.65,19.36,37.22,4.57,49.58,25.04,6.34,26.74-42.54,58.22-68.72,60.67-24.07,3.67-17.11-21.27-31.41-35.84-78.33-98.61,1.98-111.76-75.4-116.58-17.18-4.95-10.17-21.09-17.72-24.93-6.48-.44-6.57,8.9-7.85,13.71-12.56,31.85-22.63-36.24-43.09-36.77-36.23-17.69,8.29,18.39,11.83,24.04-4.92,6.53-9.13,18.29-18.13,19.41-9.77-1.26-2.84-6.68,2.7-9.36,3.35-10.18-31.66-39.72-43.25-30.6-14.12-.42-20.72,11.64-30.32,19.71-32.25,71.13-89.9-20.08-27.74-21.21,11.01,2.47,20.72-5.03,15.39-16.22-5.93-10.47-25.44-13.72-3.99-19.56,25.09-7.13,47.33-25.69,58.91-48.51,14.12,27.76,54.12,17.72,64.77-11.2-4.99-13.09-17.39-23.82-.15-36.68,1.28-1.93-.77-2.28-2.2-1.72-12.8,5.54-29.33,18.2-19,34.1-5.01,8.32-16.98,34.98-28.26,21.19-.04-27.21-23.19-4.19-31.3-21.65-5.06-24.83,30.87-26.7,39.51-47.98,57.84-45.42,135.7,24.21,205.5-16.17,44.68-17.17,102.15-38.32,153.05-33.77,19.81,26.7,485.06,43.37,363.92,65.72-5.1,1.76-1.26,6.06,1.6,8.18,16.38,16.55-42.03,16.23-32.07,32.79,33.14,48.05-10.31,50.35-27.69,5.02-.13-13.27-.35-24.57-16.69-24.06-17.97,19.89-21.83,6.9-48.07,15.18-40.25,15-9.55,31.53,17.91,28.51,11.15,4.71,44.01,36.7,30.91,47.81-28.27-38.02-8.85,23.91-34.91,26.64-24.78,15.19,8.29,30.66,2.64,48.74-15.13,4.78-18.43-24.4-33.63-27.88-6.75.69-33.15-8.94-23.92,5.77,8.81,4.76,24.32,2.13,16.3,17.85,3.23,21.79,30.07,39.48,11.09,63.22-11.19,25.48-39.7,36.22-64.19,36.77-4.56,25.55,39.43,43.07,10.53,67.46-16.35,26.48-23.14-15.66-40.76-7.86-18.06,7.43,54.82,63.84,14.88,60.35-23.49-19.4-19.89-58.47-32.5-83.49-29.24-4.85-19.71-38.64-44.91-44.75-20.42.74-37.06,28.29-48.75,44.54-.23,19.2-9.61,62.91-29.1,25.31-13.39-23.37-10.61-55-34.55-68.79-20.28-31.71-50.52-20.89-82.79-31.79-17.52-4.68-63.47-42.82-27.97-.37Z" fill="none" stroke="#c12827" stroke-miterlimit="10"/>
  <path d="M863.51,735.51c-4.87-25.28-18.34-38.46-20.65-65.57-.03-.38-.08-.76-.15-1.13-3.87-19.7-19.75-30.68-14.21-50.89.32-1.15.83-2.24,1.52-3.22,11.94-17.1,11.33-23.96,6.46-38.32-.41-1.21-.59-2.49-.52-3.76,1.48-24.88-29.02-39.9-24.73-64.3.13-.74.38-1.46.68-2.16,5.36-12.78-1.95-17.27-12.57-16.44-2.97.23-5.88-.92-7.96-3.05-18.92-19.42-5.4-6.55-34.32-3.67-1.03.1-2.08.05-3.1-.16-9.73-1.95-29.93,1.48-37.97,3.96-2.19.67-4.54.61-6.68-.19-18.86-7.07-18.9-28.88-31.33-41.28-.81-.81-1.76-1.49-2.8-1.97-13.96-6.51-13.46-24.49-6.99-34.49,1.15-1.78,1.79-3.84,1.72-5.95-.99-31.4,4.75-55.68,31.62-75.99.93-.7,1.74-1.55,2.39-2.52,9.57-14.29,19.05-41.34,37.07-40.61,1.06.04,2.11.29,3.09.68,15.76,6.23,16.55-11.45,40.64-9.45.58.05,1.15.17,1.72.31,7.44,1.76,18.34-1.29,27.43-2.15,7.3-.69,12.84,6.46,10.49,13.41-1.61,4.75-2.94,9.49.89,12.33,11.52,9.11,20.14,0,33.11,9.58.05.03.1.07.15.11,5.2,3.84,12.39,1.81,15.3-3.96,6.79-13.5,35.22,12.51,50.71,8.02,32.46-9.53,25.75,39.7,43.01,59.64,1.66,1.91,2.4,4.41,2.38,6.94-.09,11.63,13.12,19.11,14.15,31.19,1.97,11.25,18.39,11.31,20.18,23.73,5.06,18.29,21.23,9.32,33.66,4.8,3.82-1.39,8.17-.39,10.88,2.65,17.59,19.73-32.98,57.06-48.16,70.55-36.58,32.38,11.79,89.71-26.41,120.72-.51.41-1.07.76-1.64,1.07-10.23,5.59-12.57,16.39-11.55,27.47.14,1.55-.06,3.1-.62,4.55-16.09,41.9-42.38,84.55-88.5,77.57-4.22-.64-7.63-3.84-8.43-8.03Z" fill="none" stroke="#c12827" stroke-miterlimit="10"/>
  <path d="M435.72,850.34c8.36,8.23,2.22,7.09,9.58,13.24l4.28,3.58,11.93,4.76c1.33.53,2.11,2.62,1.8,3.83-.34,1.31-2.55,2.84-4.13,2.32l-9.12-2.98-7.09-.43c-4.38-.27-7.05-11.59-15.93-9.62-3.74.83-6.51-.76-9.27-2.89s-5.45-4.23-6.68-7.82c-4.93-14.38-11.21-13.63-12.15-28.85-.4-6.49-3.74-12.35-5.89-18.37-2-5.6-4.67-10.02-7.71-15.11-3.52-5.9-1.2-15.79-9.16-27.89-2.39-3.64,2.85-9.45,2.64-18.06-.44-18.78-.25-15.5-6.34-31.55-1.98-5.22-1.97-9.58-.75-14.88,1.45-6.3,1.25-13.01,1.12-19.56-.17-8.57-.06-16.63.28-25.18.95-23.56-12.15-22.06-31.57-35.19-2.93-1.98-5.1-4.71-6.49-7.94-.02-.04-12.84-24.31-11.91-22.87l-5.82-8.98c-3.53-5.44-4.91-11.85-9.17-16.87-16.54-19.47.01-18.48-3.13-29.49l-2.23-7.8c-1.23-4.32.45-7.03,3.12-10.14l10.5-12.18c6.27-7.28,8.65-17.18,5.26-26.37l-4.02-10.89c-.64-1.74-.29-4.98.68-6.61.85-1.45,3.33-3.08,5.41-3.21l6.16-.4c9.62-.62,5.05-12.96,16.12-13.51,9.42-.47,9.07-9.98,18.03-6.83,4.78,1.68,9.58,3.94,13.83,6.84,14.7,10.05,23.41,1.34,37.93,2.27,1.74.11,5.2,2.85,5.31,4.58.16,2.44.15,5.03.18,7.57,19.94,23.54,24.94,16.74,42.32,26.09,12.01,6.46,10.56,15.43,17.1,27.56,6.07,11.25,17.63,10.43,24.19,13.56,5.69,2.71,10.73,6.12,16.22,9.16,8.18,4.53,13.75.7,17.54,2.38s6.53,4.74,9.52,7.56c6.25,5.9,4.74,4.78,12.98,5.9,8.27,5.78,5.69,21.68,2.08,28.8-1.83,3.61-5.64,5.93-7.68,9.36-3.27,5.51-6.3,10.86-9.13,16.67-4.86,9.99,3.31,22.75-5.03,41.49-5.11,11.48-3.1,19.54-12.19,22.5l-18.32,5.97c-9.37,3.05-14.67,11.55-13.4,21.38.92,7.13-.59,15.43-6.18,20.25-4.63,3.99-7.99,8.04-8.89,14.38-1,7.05-4.44,13.12-9.64,17.96-10.28,9.57-1.83,18.07-14.21,22.96-2.5.98-6.17,1.96-7.99,3.86-5.71,5.94-8.29,13.41-10.39,21.25-.94,3.53-7.12,5.08-4.49,10.13s-3.38,7.91-3.46,11.58c-.13,5.97,8.46,5.36,9.16,10.56.31,2.31-1.12,4.06-3.08,5.2-5.2,3.03.88,6.04-3.37,9.83-2.27,2.02-1.43,5.06.7,7.16Z" fill="none" stroke="#c12827" stroke-miterlimit="10"/>
  <path d="M258.67,380.44c37.42-26.41,7.34,17.15,13.64,30.09,6.66,7.14,25.26-2.53,25.37,12.32-3.54,23.43-12.84,30.02,14.96,36.26,3.2,16.3-16.2,12.61-22.45,2.39-17.2-5.91-9.59-29.68-27.31-32.96-13.64,1.21-14.27-3.75-25.49-13.95-24.25.62-45.46-8.18-60.87-27.98-2.65-8.97,3.48-15.86-4.61-24.42-8.63-6.81-17.47-29.83-20.77-42.26-.64-2.41-4.15-2.27-4.56.19-2.08,12.28,15.05,33.86,9.99,45.37-7.95,3.98-14.31-10.56-14.35-17.06-2.15-6.54-14.11-9.64-4.46-15.4-9.37-13.74-.69-25.2-9-34.02-4.96-3.67-15.62-8.3-11.06-16.28-13.21-48.83,40.46-52.99,24.83-92.33,9.4-21.67,6.19-10.52,5.62-36.71-.75-37.31-43.11-27-63.97-18.26-22.37-4.07-49.49,23.1-69.18,23.27-12.54-10.69,27.61-10.99,24.91-22.3-6.97,2.08-14.64-4.65-10.19-13.42,3.72-8.24,38.93-15.85,35.78-19.21-27.25-6.85,4.48-10.58,14.05-14.42,3.61-12.37,10.98-14.31,23.57-13.64,32.22-13.58,60.68-13.05,93.59-2.92,33.52,7.32,72.52-12.57,103.83,6.11,13.17,7.74,18.91-9.11,43.16-.26,11.76,4.39,24.55,2.83,36.8,2.41,7.99-4.93,5.48-19.22,19.36-18.62,7.9-2.26,6.02,16.9,15.77,11.23,13.77-22.46,18.35-21.32,48.19-23.39,7.52-2.11,14.39-3.31,17.63,4.66,1.41,15.88,16.96,4.43,21.54,17.48,1.73,9.44,18.44,28.26-1.99,28.04-20.32-18.17-3.32,2.11-9.16,8.65-19.42,22.66-24.73.09-43.98-5.7-4.79-1.44-3.96-8.54,1.03-8.84,9.26-.54,22.38,2.89,22.49-9.93-3.68-3.22-12.82-9.44-18.66-10.51-10.89.39-13.85,11.08-21.86,15.7-14.36,4-10.72,5.88-7.62,16.32-2.5,5.4-8.73-2.54-15.39,1.95-8.24,6.97-16.98-8.66-23.89,1.45-11.35,11.1-24.67,5.15-35.98,17.48-5.07,9.95-.38,17.66,8.9,19.81,1.87.43,3.57,1.36,4.99,2.65,5.61,5.11,14.76,7.37,20.68,9.72,2.27,2.79-2.73,9.96-3.53,12.64-2.99,8.21,8.74,8.85,10.39,1.69,1.58-15.39,8.6-17.12,20.27-20.78,10-3.7-2.1-13.06,7.32-19.12,5.24-3.04,6.91-10.28,9.06-15.46,4.18-11.86,34.9-6.97,31.95,7.46-2.01,4.46-4.38,14.29,3.87,12.09,33.85-20.31,19.45,5.17,31.68,21.89,10.43,5.66,10.18,16.67,6.87,26.74-2.23,5.98,12.7,19.89.19,24.18-15.18.43-42.12,5.49-23.09-16.8-7.28-2.64-19.75-10.73-24.79-1.33.27,7.31-12.11,18.25-2.93,22.76,2.19,1.19,15.71,2.79,9.41,7.77-7.85,3.24-11.7.81-21.86,6.46-11.91,6.62-19.68-4.71-29.36,6.66-10.24,12.04-17.95,12.56-31.16,20.42-15.62,10-16.31,40.81-41.02,47.69-24.79,3.97-.43,59.97-22.59,43.11-3.63-20.68-4.61-29.14-21.68-27.44-2.07.21-4.01,1.05-5.67,2.3-11.71,8.88-25.48-3.16-39.05,4.99-19.19,7.9-29.43,51.26-21.16,59.93,11.9,10.23,31.18,11.31,32.98-6.59Z" fill="none" stroke="#c12827" stroke-miterlimit="10"/>
  <path d="M578.01,127.06c-2.99,2.01-7.67,1.83-9.52-.83-5.98-7.95-14.11,2.19-16.56-8.75-2.97-14.26-5.22-40.85,12.08-42.8-10.58-14.41-1.48-13.79-3.9-29.05-6.28-11.81-52.3,3-36.89-19.13,61.48-11.98,127.15-28.94,191.16-17.29,64.96,6.29-.65,8.05-2.91,20.59,4.49,16.9-16.42,20.54-22.97,28.75,2.07,4.63,2.71,10.21-1.75,13.6-13.35,3.33-26.65,11.86-40.68,11.62-8.95,3.94-23.48,14.81-36,13.28-13.91,1.41-10.12,15.24-32.06,30.01Z" fill="none" stroke="#c12827" stroke-miterlimit="10"/>
  <path d="M1497.84,297.71c-2.47,7.39-7.76,2.41-12.82,4.4-2.15,4.96-4.27,14.55-11.68,12.94-23.04-6.81-2.76-21.55,2.16-31.49,8.89-.78,12.82-3.85,16.86-11.69,10.31-8.61,2.89-23.22-4.51-30.08-3.02-2.8-4.36-7-3.29-10.98.46-1.71.83-3.39,1.16-4.92.76-3.54,4.22-5.88,7.77-5.15,6.03,1.23,13.04,5.07,18.24,8.16,2.11,1.26,2.39,4.11.68,5.88-.64.66-1.18,1.55-1.35,2.97-.72,5.91-7.84,1.33-7.14,7.96,6.67,7.78,22,33.7,10.11,44.91-6.35,3.75-15.22-4.21-16.19,7.1Z" fill="none" stroke="#c12827" stroke-miterlimit="10"/>
  <path d="M1009.58,683.29c-18.9-11.04,1.02-25.6-1.81-42.45-1.94-7.88-.97-18.32,8.81-19.58,12.92,2.74,16.67-37.49,28.08-19.34,1.17,14.87-10.87,91.73-35.08,81.37Z" fill="none" stroke="#c12827" stroke-miterlimit="10"/>
  <path d="M778.32,176.66c-4.84,8.73-26.87,17.6-34.4,12.24,1.8-5.37,3.63-20.92,11.1-20.73.95-10.4-35.51-29.83,4.12-31.89,7.63,5.06.45,17.17,8.7,22.69,8.64,8.51,2.95,11.45,8.68,13.24,2.42.49,2.79,2.52,1.79,4.46Z" fill="none" stroke="#c12827" stroke-miterlimit="10"/>
  <path d="M1506.14,758.86c-.31-3.16-.56-6.23-7.53-9.24-2.45-1.06-4.26-3.18-5.11-5.71-9.04-27.09-33.17-20.22-57.21-8.55-.96.46-1.98.78-3.04.89-10.31,1.08-25.05,8.35-37,10.42-6.75,1.17-12.48-5.2-10.55-11.77,5.2-17.71-3.97-32.17,2.66-53.61.15-.49.26-.99.33-1.5,3.33-23.97,24.19-26.97,41.69-34.65,1.46-.64,2.75-1.63,3.72-2.9,46.25-60.48,47.38-10.25,61.42-44.46,5.07-11.43,18.63-6.59,29.18-4.11,4.95,1.17,8.02,6.09,7,11.07-2.24,10.91-6.11,15.08,10.56,21.73,5.66,2.26,11.94-1.37,12.78-7.41.63-4.56,1.22-9.77,2.25-14.33,1.91-8.48,13.38-10.09,17.42-2.4,7.95,15.15,1.2,30.23,8.71,39.66.92,1.15,2.13,2.06,3.49,2.64,7.54,3.17,4.58,9.83,13.11,20.94,15.69,20.44,7.39,18.71,3.87,40.92-3.78,23.87-28.02,25.64-39.01,49.09-9.43,18.27-34.33,16.45-52.09,11.35-3.67-1.05-6.3-4.28-6.67-8.08Z" fill="none" stroke="#c12827" stroke-miterlimit="10"/>
  <path d="M1596.24,582.73c-29.5-31.8-13.19,9.08-52.6-10.71,3.1-18.74-7.91-25.61-26.86-28.19-9.57-1.09-3.51-11.94-7.43-14.37-14.43-5.16-5.07-9.5,4.39-9.14,3.15.12,6,1.91,7.57,4.65,8.61,15,8.08,2.08,26.84,4.56,0,0,29.79,9.54,29.79,9.54,6.86,4.02,20.95,17.84,21.87,24.6-.58,6.13,2.33,11.45,8.05,13.72,15.51,8.45-4.46,11.85-11.62,5.33Z" fill="none" stroke="#c12827" stroke-miterlimit="10"/>
  <path d="M1426.25,524.6c-8.97,3.52,3.67,14.64-7.91,18.71-11.53,4.06-25.31-2.13-34.25-9.59-8.1-7.78-10.78-26.44.86-31.78,17.84-2.91,36.47-41.48,52.41-22.67-6.53,16.19,2.19,33.26-4.39,35.72-5.6,1.65-1.47,7.55-6.73,9.61Z" fill="none" stroke="#c12827" stroke-miterlimit="10"/>
  <path d="M1409.38,565.03c27.31,19.71-37.33,3.15-45.42-.33-26.92-17.24-32.42-47.22-55.65-72.78-13.86-8.13-1.89-16.55,8.14-7.44,9.31,10.38,18.94,19.78,29.56,28.87,27.66,22.96,4.8,45.31,38.28,45.98,6.61.82,20.55-.49,25.11,5.71Z" fill="none" stroke="#c12827" stroke-miterlimit="10"/>
  <path d="M1460.36,548.48c.31,3.67-2.32,6.31-6.14,4.98-3-.87-5.76.18-8.21,1.24-3.45,1.5-7.38-.69-7.89-4.42-2-14.76-3.14-40.69,14.13-42.45,39.52-.32-4.94,17.85,8.1,40.64Z" fill="none" stroke="#c12827" stroke-miterlimit="10"/>
  <path d="M700.29,106.43c-10.15,10.66-25.91.83-28.65-11.2,11.92-9.19,71.1-2,28.65,11.2Z" fill="none" stroke="#c12827" stroke-miterlimit="10"/>
  <path d="M1462.67,431.69c-19.77,3.7-37.56-15.48-27.89-35.98,13.73-9.25,20.4,4.27,10.24,17.44-4.66,13.42,23.3,5.14,17.65,18.54Z" fill="none" stroke="#c12827" stroke-miterlimit="10"/>
  <path d="M348.14,389.58c-21.65,4.15-29.35-28.81-52.43-14.23-11.79-1.06,5.19-10.61,10.79-10.6,11.99-.67,46.9,13.04,41.63,24.83Z" fill="none" stroke="#c12827" stroke-miterlimit="10"/>
  <path d="M736.17,177.99c-8.76,1.83-20.05,10.37-16.14-2.33,4.21-6.29-.31-11.78,4.51-12.31,5.97-2.78,16.47-11.19,20.69-.97.25,4.18-4.8,3.87-4.78,10.93,0,2.71-1.53,4.54-4.28,4.68Z" fill="none" stroke="#c12827" stroke-miterlimit="10"/>
  <path d="M378.44,398.02c-5.78.53-19.27,7.47-27.24,1.57-2.01-1.49-1.23-4.66,1.21-5.24,3.3-.78,2.67-1.73,3.04-7.42,3.44-3.16,32.64,4.96,22.99,11.09Z" fill="none" stroke="#c12827" stroke-miterlimit="10"/>
</svg>